<svg width="123" height="59" viewBox="0 0 123 59" fill="none" xmlns="http://www.w3.org/2000/svg">
<path d="M110.5 44.5307C110.2 44.1314 109.984 43.6761 109.864 43.1917C109.744 42.7073 109.722 42.2037 109.8 41.7107C109.902 40.9674 110.223 40.2713 110.721 39.7105C111.22 39.1498 111.874 38.7496 112.6 38.5607C113.326 38.3717 114.092 38.4026 114.8 38.6493C115.509 38.8961 116.128 39.3476 116.58 39.9466C117.032 40.5457 117.296 41.2654 117.338 42.0145C117.38 42.7636 117.2 43.5084 116.818 44.1546C116.437 44.8008 115.872 45.3193 115.196 45.6444C114.52 45.9694 113.762 46.0865 113.02 45.9807C112.524 45.9206 112.045 45.7612 111.612 45.5121C111.179 45.263 110.801 44.9292 110.5 44.5307ZM115.78 34.8407L113.44 34.5207L113.85 30.2607C114.39 25.1207 114.706 19.5607 114.8 13.5807C114.893 7.6007 115.02 4.05402 115.18 2.94068C115.256 2.30008 115.497 1.69023 115.88 1.1707C116.195 0.744114 116.635 0.426117 117.14 0.260692C117.551 0.124279 117.977 0.0402827 118.41 0.0106918C119.126 -0.035191 119.844 0.066932 120.52 0.310695C120.928 0.460933 121.318 0.658972 121.68 0.900691C122.14 1.18425 122.492 1.61375 122.68 2.12069C122.894 2.72657 122.949 3.37739 122.84 4.01069C122.653 5.39069 121.816 8.97735 120.33 14.7707C118.843 20.564 117.626 25.8607 116.68 30.6607L115.78 34.8407Z" fill="#F49E20"/>
<path d="M12.67 17.5807C9.75201 17.5853 6.92545 18.5993 4.67 20.4507V4.65073C4.63118 4.05786 4.36829 3.50194 3.93466 3.09578C3.50103 2.68962 2.92915 2.46362 2.33501 2.46362C1.74087 2.46362 1.16896 2.68962 0.735336 3.09578C0.301708 3.50194 0.0388194 4.05786 0 4.65073V40.6507C0.0388194 41.2436 0.301708 41.7995 0.735336 42.2057C1.16896 42.6118 1.74087 42.8378 2.33501 42.8378C2.92915 42.8378 3.50103 42.6118 3.93466 42.2057C4.36829 41.7995 4.63118 41.2436 4.67 40.6507V30.2907C4.68838 29.2356 4.91442 28.1943 5.33521 27.2265C5.75599 26.2587 6.36327 25.3832 7.12239 24.6501C7.88151 23.917 8.7776 23.3406 9.75949 22.9538C10.7414 22.567 11.7898 22.3773 12.845 22.3957C13.9002 22.4141 14.9414 22.6401 15.9092 23.0609C16.877 23.4817 17.7525 24.089 18.4856 24.8481C19.2187 25.6072 19.7951 26.5033 20.1819 27.4852C20.5688 28.4671 20.7584 29.5156 20.74 30.5707V40.6607C20.7788 41.2536 21.0417 41.8095 21.4753 42.2157C21.909 42.6218 22.4809 42.8478 23.075 42.8478C23.6692 42.8478 24.241 42.6218 24.6747 42.2157C25.1083 41.8095 25.3712 41.2536 25.41 40.6607V29.7607C25.2779 26.4756 23.876 23.37 21.4996 21.0981C19.1231 18.8261 15.9577 17.5651 12.67 17.5807V17.5807Z" fill="#F49E20"/>
<path d="M50.0304 17.5806C49.4115 17.5833 48.8189 17.831 48.3822 18.2695C47.9456 18.7081 47.7004 19.3017 47.7004 19.9206V30.2906C47.7004 32.4124 46.8576 34.4472 45.3573 35.9475C43.857 37.4478 41.8221 38.2906 39.7004 38.2906C37.5787 38.2906 35.5438 37.4478 34.0435 35.9475C32.5433 34.4472 31.7004 32.4124 31.7004 30.2906V19.9206C31.7213 19.6011 31.6764 19.2807 31.5686 18.9793C31.4607 18.6778 31.2921 18.4018 31.0732 18.1681C30.8544 17.9344 30.5898 17.7481 30.2961 17.6208C30.0023 17.4934 29.6856 17.4277 29.3654 17.4277C29.0452 17.4277 28.7284 17.4934 28.4347 17.6208C28.1409 17.7481 27.8764 17.9344 27.6576 18.1681C27.4387 18.4018 27.2701 18.6778 27.1622 18.9793C27.0543 19.2807 27.0095 19.6011 27.0304 19.9206V30.2906C27.0339 32.6871 27.717 35.0335 29.0005 37.0574C30.2839 39.0813 32.115 40.6996 34.2813 41.7247C36.4475 42.7497 38.8601 43.1393 41.2389 42.8483C43.6176 42.5573 45.8651 41.5976 47.7204 40.0806V45.4606C47.8344 47.5823 47.1009 49.6625 45.6813 51.2434C44.2616 52.8244 42.2721 53.7766 40.1504 53.8906C38.0287 54.0047 35.9485 53.2712 34.3676 51.8515C32.7867 50.4319 31.8344 48.4423 31.7204 46.3206C31.6771 45.7327 31.4106 45.1835 30.9756 44.7857C30.5405 44.3878 29.9699 44.1714 29.3804 44.1806C29.0537 44.1808 28.731 44.2515 28.4341 44.3878C28.1373 44.5241 27.8734 44.7229 27.6604 44.9706C27.4592 45.219 27.3111 45.506 27.2251 45.8139C27.1391 46.1217 27.1171 46.4439 27.1604 46.7606C27.4514 49.859 28.8744 52.7414 31.1571 54.8565C33.4398 56.9717 36.4221 58.1712 39.5336 58.2256C42.6451 58.2801 45.6675 57.1857 48.0229 55.1517C50.3782 53.1177 51.9011 50.2869 52.3004 47.2006H52.4204V19.9206C52.4205 19.6091 52.3583 19.3007 52.2376 19.0134C52.1169 18.7262 51.94 18.466 51.7174 18.2481C51.4948 18.0301 51.2309 17.8588 50.9412 17.7442C50.6515 17.6296 50.3419 17.574 50.0304 17.5806Z" fill="#F49E20"/>
<path d="M106.45 29.9507C106.256 27.7164 105.476 25.5728 104.189 23.7363C102.902 21.8997 101.154 20.435 99.1196 19.4902C97.0856 18.5454 94.8385 18.1537 92.6048 18.3548C90.3712 18.5559 88.2301 19.3426 86.3976 20.6355C84.5651 21.9284 83.1061 23.6818 82.1677 25.7188C81.2294 27.7557 80.8449 30.0041 81.0531 32.2371C81.2613 34.4701 82.0548 36.6087 83.3536 38.4371C84.6523 40.2654 86.4104 41.7188 88.4503 42.6507C88.6479 42.7831 88.8683 42.878 89.1003 42.9307C90.5447 43.5263 92.0881 43.8452 93.6503 43.8707H93.7903C94.8599 43.8667 95.9248 43.729 96.9602 43.4607L97.2203 43.3807C98.452 43.0866 99.6274 42.5934 100.7 41.9207C101.045 41.7257 101.334 41.4462 101.54 41.1085C101.747 40.7708 101.864 40.3861 101.88 39.9907C101.896 39.5724 101.799 39.1575 101.601 38.789C101.402 38.4205 101.109 38.1117 100.751 37.8945C100.393 37.6774 99.9838 37.5597 99.5652 37.5538C99.1467 37.5478 98.7341 37.6538 98.3703 37.8607C98.0803 38.0307 97.7902 38.1707 97.5202 38.3107L96.5202 38.6807C95.6511 39.0111 94.7301 39.1838 93.8003 39.1907C93.5903 39.1907 93.3802 39.1907 93.2102 39.1907C93.0646 39.1664 92.9177 39.1497 92.7702 39.1407C90.9536 38.9133 89.2699 38.0697 88.0003 36.7507C87.1831 35.9114 86.5588 34.904 86.1706 33.7988C85.7825 32.6935 85.64 31.517 85.7529 30.351C85.8659 29.1851 86.2317 28.0578 86.8248 27.0476C87.4178 26.0374 88.224 25.1686 89.187 24.5018C90.1501 23.8349 91.2469 23.386 92.4012 23.1863C93.5555 22.9866 94.7394 23.0409 95.8705 23.3454C97.0017 23.6499 98.0528 24.1973 98.9508 24.9494C99.8489 25.7016 100.572 26.6405 101.07 27.7007C101.137 27.8217 101.172 27.9576 101.172 28.0957C101.172 28.2338 101.137 28.3697 101.07 28.4907C101.002 28.6013 100.906 28.6925 100.792 28.7556C100.678 28.8186 100.55 28.8514 100.42 28.8507H89.8003C89.1956 28.8507 88.6156 29.0909 88.1881 29.5185C87.7605 29.9461 87.5202 30.526 87.5202 31.1307V31.2307C87.5202 31.8354 87.7605 32.4153 88.1881 32.8429C88.6156 33.2705 89.1956 33.5107 89.8003 33.5107H103.21C103.65 33.5199 104.088 33.4355 104.493 33.2631C104.898 33.0907 105.262 32.8342 105.56 32.5107C105.871 32.2055 106.112 31.8363 106.265 31.4288C106.419 31.0212 106.482 30.5851 106.45 30.1507V29.9507Z" fill="#F49E20"/>
<path d="M66.5401 17.6307C63.1726 17.7499 59.983 19.172 57.6436 21.5972C55.3043 24.0224 53.998 27.2611 54.0001 30.6307V55.8807C53.9974 56.1879 54.0558 56.4926 54.1718 56.777C54.2879 57.0615 54.4593 57.32 54.676 57.5377C54.8928 57.7554 55.1506 57.9279 55.4345 58.0451C55.7185 58.1624 56.0229 58.2221 56.3301 58.2207V58.2207C56.9319 58.2121 57.5063 57.968 57.9301 57.5407C58.3926 57.071 58.6544 56.4399 58.6601 55.7807V30.5807C58.6324 28.4483 59.4386 26.3894 60.9068 24.8428C62.375 23.2961 64.3891 22.3839 66.5201 22.3007C67.6272 22.2721 68.7281 22.4762 69.7513 22.9C70.7745 23.3238 71.6974 23.9577 72.4601 24.7607C73.2195 25.5324 73.81 26.4537 74.1939 27.466C74.5779 28.4783 74.7468 29.5595 74.6901 30.6407C74.6405 31.9638 74.2634 33.2538 73.5925 34.3952C72.9215 35.5366 71.9778 36.4936 70.846 37.1805C69.7141 37.8674 68.4294 38.2626 67.1072 38.3307C65.785 38.3988 64.4665 38.1376 63.2701 37.5707C62.9971 37.4364 62.7 37.3583 62.3963 37.3411C62.0926 37.3239 61.7885 37.3679 61.5021 37.4705C61.2157 37.5731 60.9529 37.7322 60.7292 37.9384C60.5056 38.1446 60.3256 38.3936 60.2001 38.6707C60.072 38.9383 59.9984 39.2286 59.9835 39.5249C59.9685 39.8211 60.0126 40.1174 60.113 40.3965C60.2135 40.6755 60.3684 40.9319 60.5688 41.1507C60.7691 41.3694 61.0109 41.5462 61.2801 41.6707C63.546 42.8101 66.1097 43.2181 68.6174 42.8384C71.1251 42.4586 73.4531 41.3099 75.2801 39.5507C76.5049 38.4245 77.4903 37.0631 78.1775 35.5477C78.8648 34.0324 79.2397 32.3941 79.2801 30.7307C79.3455 29.0161 79.0609 27.306 78.4435 25.705C77.8261 24.104 76.889 22.6456 75.6894 21.4188C74.4897 20.192 73.0526 19.2225 71.4658 18.5695C69.879 17.9165 68.1758 17.5937 66.4601 17.6207L66.5401 17.6307Z" fill="#F49E20"/>
</svg>