<svg width="358" height="79" viewBox="0 0 358 79" fill="none" xmlns="http://www.w3.org/2000/svg">
<path d="M349.549 47.965C349.364 47.8098 349.095 47.8089 348.909 47.9629L341.841 53.8149C341.727 53.9095 341.66 54.05 341.66 54.1984C341.659 54.3467 341.725 54.4877 341.838 54.583L349.499 61.0109C349.684 61.1661 349.953 61.167 350.139 61.013L357.207 55.161C357.321 55.0664 357.388 54.9259 357.388 54.7775C357.389 54.6292 357.323 54.4882 357.21 54.3929L349.549 47.965Z" fill="#9A1750" stroke="#E3E2DF" stroke-linejoin="round"/>
<path d="M349.549 40.213C349.4 40.0881 349.193 40.0607 349.017 40.1429C348.84 40.225 348.728 40.4017 348.728 40.596V48.348C348.728 48.4958 348.793 48.636 348.906 48.731L356.567 55.1589C356.716 55.2838 356.923 55.3112 357.1 55.229C357.276 55.1469 357.388 54.9702 357.388 54.7759V47.0239C357.388 46.8761 357.323 46.7359 357.21 46.6409L349.549 40.213Z" fill="#9A1750" stroke="#E3E2DF" stroke-linejoin="round"/>
<path d="M340.468 50.019C340.356 50.1144 340.291 50.2544 340.292 50.4016C340.292 50.5488 340.358 50.6884 340.47 50.783L348.131 57.2109C348.318 57.3676 348.59 57.3668 348.776 57.2089L353.336 53.3328C353.448 53.2375 353.513 53.0975 353.512 52.9503C353.512 52.803 353.446 52.6635 353.334 52.5689L345.673 46.141C345.486 45.9842 345.214 45.9851 345.028 46.143L340.468 50.019Z" fill="#9A1750" stroke="#E3E2DF" stroke-linejoin="round"/>
<path d="M344.852 46.524C344.852 46.6718 344.917 46.812 345.03 46.907L352.691 53.3349C352.84 53.4598 353.048 53.4872 353.224 53.405C353.4 53.3229 353.512 53.1462 353.512 52.9519V48.7719C353.512 48.6241 353.447 48.4839 353.334 48.3889L345.673 41.961C345.524 41.8361 345.317 41.8087 345.141 41.8908C344.964 41.973 344.852 42.1497 344.852 42.344V46.524Z" fill="#9A1750" stroke="#E3E2DF" stroke-linejoin="round"/>
<path d="M348.04 38.851C347.831 38.6758 347.52 38.7002 347.341 38.9059C347.162 39.1115 347.181 39.4227 347.383 39.6053L348.893 40.9673C348.897 40.9713 348.902 40.9752 348.906 40.979L356.567 47.4069C356.776 47.5822 357.087 47.5578 357.266 47.3521C357.444 47.1464 357.426 46.8353 357.223 46.6526L355.714 45.2907C355.709 45.2867 355.705 45.2828 355.7 45.2789L348.04 38.851Z" fill="#9A1750" stroke="#E3E2DF" stroke-linejoin="round"/>
<path d="M345.014 42.7123C345.019 42.7173 345.025 42.7222 345.03 42.727L352.691 49.1549C352.899 49.3296 353.209 49.306 353.388 49.1017C353.567 48.8975 353.551 48.5874 353.35 48.4036L353.143 48.2131C353.138 48.2081 353.132 48.2032 353.126 48.1984L345.466 41.7705C345.258 41.5958 344.948 41.6195 344.769 41.8237C344.589 42.028 344.606 42.3381 344.806 42.5219L345.014 42.7123Z" fill="#9A1750" stroke="#E3E2DF" stroke-linejoin="round"/>
<path d="M344.806 42.5219C344.812 42.5269 344.817 42.5318 344.823 42.5366L352.483 48.9645C352.692 49.1392 353.001 49.1156 353.181 48.9113C353.36 48.707 353.343 48.3969 353.143 48.2131L351.9 47.0724C351.895 47.0673 351.889 47.0624 351.884 47.0577L344.223 40.6298C344.015 40.4551 343.705 40.4787 343.526 40.683C343.347 40.8872 343.363 41.1973 343.564 41.3811L344.806 42.5219Z" fill="#9A1750" stroke="#E3E2DF" stroke-linejoin="round"/>
<path d="M344.067 35.2669C343.858 35.0917 343.547 35.116 343.368 35.3217C343.189 35.5274 343.208 35.8386 343.411 36.0212L347.383 39.6053C347.388 39.6093 347.392 39.6132 347.397 39.6171L355.057 46.045C355.266 46.2202 355.577 46.1958 355.756 45.9902C355.935 45.7845 355.916 45.4733 355.714 45.2907L351.741 41.7066C351.736 41.7026 351.732 41.6986 351.727 41.6948L344.067 35.2669Z" fill="#9A1750" stroke="#E3E2DF" stroke-linejoin="round"/>
<path d="M343.564 41.3811C343.569 41.3862 343.575 41.3911 343.58 41.3958L351.241 47.8237C351.449 47.9984 351.759 47.9748 351.938 47.7705C352.117 47.5663 352.101 47.2562 351.9 47.0724L350.164 45.4787C350.159 45.4737 350.153 45.4688 350.148 45.4641L342.487 39.0362C342.279 38.8615 341.969 38.8851 341.79 39.0894C341.611 39.2936 341.628 39.6037 341.828 39.7875L343.564 41.3811Z" fill="#9A1750" stroke="#E3E2DF" stroke-linejoin="round"/>
<path d="M342.481 53.817C342.391 53.7414 342.277 53.7 342.16 53.7H317.688C317.478 53.7 317.29 53.8315 317.218 54.029C317.146 54.2265 317.205 54.4479 317.366 54.583L325.027 61.0109C325.117 61.0865 325.231 61.1279 325.348 61.1279H349.82C350.031 61.1279 350.218 60.9964 350.29 60.7989C350.362 60.6014 350.303 60.38 350.142 60.2449L342.481 53.817Z" fill="#9A1750" stroke="#E3E2DF" stroke-linejoin="round"/>
<path d="M341.828 39.7875C341.833 39.7925 341.839 39.7974 341.844 39.8022L349.505 46.2301C349.713 46.4048 350.023 46.3812 350.202 46.1769C350.381 45.9727 350.365 45.6626 350.164 45.4787L348.922 44.338C348.916 44.333 348.911 44.3281 348.905 44.3233L341.245 37.8954C341.036 37.7207 340.727 37.7443 340.548 37.9486C340.368 38.1529 340.385 38.4629 340.585 38.6468L341.828 39.7875Z" fill="#9A1750" stroke="#E3E2DF" stroke-linejoin="round"/>
<path d="M340.585 38.6468C340.591 38.6518 340.596 38.6567 340.602 38.6615L348.262 45.0893C348.471 45.264 348.78 45.2404 348.96 45.0362C349.139 44.8319 349.122 44.5218 348.922 44.338L348.714 44.1476C348.709 44.1425 348.703 44.1376 348.698 44.1329L341.037 37.705C340.829 37.5303 340.519 37.5539 340.34 37.7581C340.161 37.9624 340.178 38.2725 340.378 38.4563L340.585 38.6468Z" fill="#9A1750" stroke="#E3E2DF" stroke-linejoin="round"/>
<path d="M342.557 33.905C342.348 33.7297 342.038 33.7541 341.859 33.9598C341.68 34.1655 341.698 34.4766 341.901 34.6592L343.411 36.0212C343.415 36.0252 343.419 36.0291 343.424 36.033L351.085 42.4608C351.293 42.6361 351.604 42.6117 351.783 42.406C351.962 42.2003 351.943 41.8892 351.741 41.7066L350.231 40.3446C350.227 40.3406 350.222 40.3367 350.218 40.3329L342.557 33.905Z" fill="#9A1750" stroke="#E3E2DF" stroke-linejoin="round"/>
<path d="M317.688 49.9C317.478 49.9 317.29 50.0315 317.218 50.229C317.146 50.4265 317.205 50.6479 317.366 50.783L325.027 57.2109C325.117 57.2865 325.231 57.3279 325.348 57.3279H348.452C348.663 57.3279 348.85 57.1964 348.922 56.9989C348.994 56.8014 348.935 56.58 348.774 56.4449L341.113 50.017C341.023 49.9414 340.909 49.9 340.792 49.9H317.688Z" fill="#9A1750" stroke="#E3E2DF" stroke-linejoin="round"/>
<path d="M341.037 37.705C340.947 37.6294 340.833 37.588 340.716 37.588H323.844C323.634 37.588 323.446 37.7195 323.374 37.917C323.302 38.1145 323.361 38.3359 323.522 38.471L331.183 44.8989C331.273 44.9745 331.387 45.0159 331.504 45.0159H348.376C348.587 45.0159 348.774 44.8844 348.846 44.6869C348.918 44.4894 348.859 44.268 348.698 44.1329L341.037 37.705Z" fill="#9A1750" stroke="#E3E2DF" stroke-linejoin="round"/>
<path d="M347.649 17.641C347.5 17.5161 347.293 17.4887 347.117 17.5708C346.94 17.653 346.828 17.8297 346.828 18.024V21.824C346.828 21.9718 346.893 22.112 347.006 22.207L354.667 28.6349C354.816 28.7598 355.024 28.7872 355.2 28.705C355.376 28.6229 355.488 28.4462 355.488 28.2519V24.4519C355.488 24.3041 355.423 24.1639 355.31 24.0689L347.649 17.641Z" fill="#9A1750" stroke="#E3E2DF" stroke-linejoin="round"/>
<path d="M325.288 33.788C325.078 33.788 324.89 33.9195 324.818 34.117C324.746 34.3145 324.805 34.5359 324.966 34.671L332.627 41.0989C332.717 41.1745 332.831 41.2159 332.948 41.2159H349.896C350.106 41.2159 350.294 41.0844 350.366 40.8869C350.438 40.6894 350.379 40.468 350.218 40.3329L342.557 33.905C342.467 33.8294 342.353 33.788 342.236 33.788H325.288Z" fill="#9A1750" stroke="#E3E2DF" stroke-linejoin="round"/>
<path d="M317.188 54.2C317.188 54.3478 317.253 54.488 317.366 54.583L325.027 61.0109C325.176 61.1358 325.384 61.1632 325.56 61.081C325.736 60.9989 325.848 60.8222 325.848 60.6279V56.8279C325.848 56.6801 325.783 56.5399 325.67 56.4449L318.009 50.017C317.86 49.8921 317.653 49.8647 317.477 49.9469C317.3 50.029 317.188 50.2057 317.188 50.4V54.2Z" fill="#9A1750" stroke="#E3E2DF" stroke-linejoin="round"/>
<path d="M323.51 38.4599L323.522 38.471L331.183 44.8989C331.392 45.0743 331.703 45.0497 331.882 44.8437C332.061 44.6378 332.041 44.3264 331.839 44.144L330.506 42.9461L330.493 42.935L322.833 36.5071C322.624 36.3317 322.313 36.3563 322.134 36.5623C321.955 36.7682 321.974 37.0796 322.177 37.262L323.51 38.4599Z" fill="#9A1750" stroke="#E3E2DF" stroke-linejoin="round"/>
<path d="M347.649 21.441C347.559 21.3654 347.445 21.324 347.328 21.324H325.288C325.078 21.324 324.89 21.4555 324.818 21.653C324.746 21.8505 324.805 22.0719 324.966 22.207L332.627 28.6349C332.717 28.7105 332.831 28.7519 332.948 28.7519H354.988C355.198 28.7519 355.386 28.6204 355.458 28.4229C355.53 28.2254 355.471 28.004 355.31 27.8689L347.649 21.441Z" fill="#9A1750" stroke="#E3E2DF" stroke-linejoin="round"/>
<path d="M324.855 33.2302C324.646 33.0547 324.335 33.0794 324.156 33.2858C323.977 33.4922 323.997 33.8038 324.2 33.9859L324.954 34.6606L324.966 34.671L332.627 41.0989C332.836 41.2744 333.147 41.2497 333.326 41.0433C333.505 40.837 333.485 40.5253 333.282 40.3433L332.528 39.6685L332.516 39.6581L324.855 33.2302Z" fill="#9A1750" stroke="#E3E2DF" stroke-linejoin="round"/>
<path d="M323.844 17.524C323.634 17.524 323.446 17.6555 323.374 17.853C323.302 18.0505 323.361 18.2719 323.522 18.407L331.183 24.8349C331.273 24.9105 331.387 24.9519 331.504 24.9519H354.988C355.199 24.9519 355.386 24.8204 355.458 24.6229C355.53 24.4254 355.471 24.204 355.31 24.0689L347.649 17.641C347.559 17.5654 347.445 17.524 347.328 17.524H323.844Z" fill="#9A1750" stroke="#E3E2DF" stroke-linejoin="round"/>
<path d="M322.031 30.7037C321.822 30.5282 321.511 30.553 321.332 30.7593C321.153 30.9657 321.173 31.2773 321.377 31.4594L324.2 33.9859L324.212 33.9963L331.873 40.4241C332.082 40.5996 332.393 40.5749 332.572 40.3685C332.751 40.1622 332.731 39.8506 332.528 39.6685L329.704 37.142L329.692 37.1316L322.031 30.7037Z" fill="#9A1750" stroke="#E3E2DF" stroke-linejoin="round"/>
<path d="M310.207 48.877C310.024 48.7237 309.758 48.7208 309.572 48.87L303.416 53.81C303.3 53.9037 303.231 54.0448 303.229 54.1945C303.228 54.3442 303.293 54.4868 303.408 54.583L311.068 61.0109C311.251 61.1642 311.517 61.1671 311.703 61.0178L317.859 56.0778C317.976 55.9841 318.044 55.8431 318.046 55.6933C318.047 55.5436 317.982 55.4011 317.867 55.3049L310.207 48.877Z" fill="#9A1750" stroke="#E3E2DF" stroke-linejoin="round"/>
<path d="M322.177 37.262L322.19 37.2731L329.85 43.701C330.059 43.8764 330.37 43.8518 330.549 43.6459C330.728 43.4399 330.709 43.1285 330.506 42.9461L326.407 39.2619L326.394 39.2507L318.734 32.8228C318.525 32.6475 318.214 32.672 318.035 32.878C317.856 33.084 317.875 33.3953 318.078 33.5777L322.177 37.262Z" fill="#9A1750" stroke="#E3E2DF" stroke-linejoin="round"/>
<path d="M307.471 45.685C307.271 45.5177 306.977 45.5313 306.794 45.7163C306.611 45.9013 306.6 46.1958 306.77 46.3934L309.506 49.5854C309.524 49.6062 309.543 49.6254 309.564 49.643L317.224 56.0709C317.424 56.2382 317.718 56.2246 317.901 56.0396C318.084 55.8546 318.095 55.5601 317.925 55.3625L315.189 52.1705C315.172 52.1497 315.152 52.1304 315.131 52.1129L307.471 45.685Z" fill="#9A1750" stroke="#E3E2DF" stroke-linejoin="round"/>
<path d="M321.277 30.029C321.068 29.8535 320.757 29.8782 320.578 30.0846C320.399 30.2909 320.419 30.6026 320.622 30.7846L321.377 31.4594L321.389 31.4698L329.049 37.8977C329.258 38.0732 329.57 38.0484 329.748 37.8421C329.927 37.6357 329.907 37.3241 329.704 37.142L328.95 36.4673L328.938 36.4569L321.277 30.029Z" fill="#9A1750" stroke="#E3E2DF" stroke-linejoin="round"/>
<path d="M318.078 33.5777L318.091 33.5889L325.752 40.0168C325.961 40.1921 326.272 40.1676 326.45 39.9616C326.629 39.7556 326.61 39.4443 326.407 39.2619L325.075 38.064L325.062 38.0529L317.401 31.625C317.192 31.4496 316.881 31.4742 316.702 31.6801C316.523 31.8861 316.543 32.1975 316.746 32.3799L318.078 33.5777Z" fill="#9A1750" stroke="#E3E2DF" stroke-linejoin="round"/>
<path d="M302.04 49.7134C301.926 49.8085 301.861 49.9486 301.861 50.0963C301.861 50.244 301.927 50.3841 302.04 50.479L309.7 56.9069C309.887 57.063 310.158 57.0629 310.344 56.9065L315.132 52.8785C315.245 52.7834 315.31 52.6432 315.31 52.4956C315.31 52.3479 315.244 52.2078 315.131 52.1129L307.471 45.685C307.285 45.5289 307.013 45.529 306.828 45.6854L302.04 49.7134Z" fill="#9A1750" stroke="#E3E2DF" stroke-linejoin="round"/>
<path d="M321.277 25.241C321.128 25.1161 320.921 25.0887 320.745 25.1709C320.568 25.253 320.456 25.4297 320.456 25.624V30.412C320.456 30.5598 320.521 30.7 320.634 30.795L328.295 37.2229C328.444 37.3478 328.652 37.3752 328.828 37.293C329.004 37.2109 329.116 37.0342 329.116 36.8399V32.0519C329.116 31.9041 329.051 31.7639 328.938 31.6689L321.277 25.241Z" fill="#9A1750" stroke="#E3E2DF" stroke-linejoin="round"/>
<path d="M325.609 21.441C325.42 21.2823 325.144 21.2854 324.958 21.4481L320.626 25.2481C320.516 25.3443 320.454 25.4836 320.456 25.6295C320.458 25.7754 320.523 25.9133 320.634 26.007L328.295 32.4349C328.484 32.5935 328.761 32.5905 328.946 32.4278L333.278 28.6278C333.388 28.5316 333.45 28.3923 333.448 28.2464C333.447 28.1005 333.381 27.9626 333.27 27.8689L325.609 21.441Z" fill="#9A1750" stroke="#E3E2DF" stroke-linejoin="round"/>
<path d="M316.58 32.008C316.58 32.1558 316.645 32.296 316.758 32.391L324.419 38.8189C324.568 38.9438 324.775 38.9712 324.952 38.889C325.128 38.8069 325.24 38.6302 325.24 38.4359V30.4559C325.24 30.3081 325.175 30.1679 325.062 30.0729L317.401 23.645C317.252 23.5201 317.045 23.4927 316.869 23.5748C316.692 23.657 316.58 23.8337 316.58 24.028V32.008Z" fill="#9A1750" stroke="#E3E2DF" stroke-linejoin="round"/>
<path d="M304.051 53.817C303.961 53.7414 303.847 53.7 303.729 53.7H282.905C282.695 53.7 282.507 53.8315 282.436 54.029C282.364 54.2265 282.423 54.4479 282.584 54.583L290.244 61.0109C290.334 61.0865 290.448 61.1279 290.566 61.1279H311.39C311.6 61.1279 311.788 60.9964 311.86 60.7989C311.932 60.6014 311.872 60.38 311.711 60.2449L304.051 53.817Z" fill="#9A1750" stroke="#E3E2DF" stroke-linejoin="round"/>
<path d="M316.748 23.6541C316.639 23.7506 316.578 23.8896 316.58 24.035C316.582 24.1803 316.647 24.3176 316.758 24.411L324.419 30.8389C324.609 30.9983 324.887 30.9944 325.072 30.8298L331.836 24.8258C331.945 24.7293 332.006 24.5903 332.004 24.4449C332.002 24.2996 331.937 24.1623 331.826 24.0689L324.165 17.641C323.975 17.4816 323.697 17.4855 323.512 17.6501L316.748 23.6541Z" fill="#9A1750" stroke="#E3E2DF" stroke-linejoin="round"/>
<path d="M311.347 23.493C311.198 23.3681 310.99 23.3407 310.814 23.4228C310.638 23.505 310.525 23.6817 310.525 23.876V37.024C310.525 37.1718 310.591 37.312 310.704 37.407L318.364 43.8349C318.513 43.9598 318.721 43.9872 318.897 43.905C319.073 43.8229 319.186 43.6462 319.186 43.4519V30.3039C319.186 30.1561 319.12 30.0159 319.007 29.9209L311.347 23.493Z" fill="#9A1750" stroke="#E3E2DF" stroke-linejoin="round"/>
<path d="M284.197 49.596C283.987 49.596 283.799 49.7275 283.728 49.925C283.656 50.1225 283.715 50.3439 283.876 50.479L291.536 56.9069C291.626 56.9825 291.74 57.0239 291.858 57.0239H310.022C310.232 57.0239 310.42 56.8924 310.492 56.6949C310.564 56.4974 310.504 56.276 310.343 56.1409L302.683 49.713C302.593 49.6374 302.479 49.596 302.361 49.596H284.197Z" fill="#9A1750" stroke="#E3E2DF" stroke-linejoin="round"/>
<path d="M306.421 33.148C306.421 33.2958 306.487 33.436 306.6 33.531L314.26 39.9589C314.409 40.0838 314.617 40.1112 314.793 40.029C314.969 39.9469 315.082 39.7702 315.082 39.5759V32.2039C315.082 32.0561 315.016 31.9159 314.903 31.8209L307.243 25.393C307.094 25.2681 306.886 25.2407 306.71 25.3228C306.534 25.405 306.421 25.5817 306.421 25.776V33.148Z" fill="#9A1750" stroke="#E3E2DF" stroke-linejoin="round"/>
<path d="M310.186 22.5495C309.973 22.3763 309.66 22.4074 309.485 22.6192C309.31 22.8309 309.339 23.144 309.549 23.3206L317.209 29.7484L317.209 29.7485L317.216 29.7535L318.371 30.6919C318.584 30.8651 318.897 30.834 319.071 30.6222C319.246 30.4105 319.218 30.0974 319.007 29.9209L311.347 23.493L311.347 23.4929L311.341 23.4879L310.186 22.5495Z" fill="#9A1750" stroke="#E3E2DF" stroke-linejoin="round"/>
<path d="M306.598 26.157L306.598 26.157L306.6 26.159L314.26 32.5869C314.471 32.764 314.786 32.737 314.964 32.5265C315.142 32.316 315.116 32.0014 314.906 31.8229L314.903 31.8209L314.775 31.7115L314.775 31.7115L314.772 31.7095L307.112 25.2816C306.901 25.1045 306.586 25.1315 306.408 25.342C306.231 25.5525 306.257 25.8671 306.466 26.0456L306.598 26.157Z" fill="#9A1750" stroke="#E3E2DF" stroke-linejoin="round"/>
<path d="M306.467 26.0456L306.467 26.0456L306.469 26.0476L314.127 32.4735L314.129 32.4755C314.34 32.6526 314.655 32.6256 314.833 32.4151C315.011 32.2046 314.985 31.89 314.775 31.7115L314.772 31.7095L313.309 30.4656L313.309 30.4656L313.306 30.4636L305.646 24.0357C305.435 23.8586 305.12 23.8856 304.943 24.0961C304.765 24.3066 304.791 24.6212 305.001 24.7997L306.467 26.0456Z" fill="#9A1750" stroke="#E3E2DF" stroke-linejoin="round"/>
<path d="M311.347 36.641C311.257 36.5654 311.143 36.524 311.025 36.524H278.953C278.743 36.524 278.555 36.6555 278.484 36.853C278.412 37.0505 278.471 37.2719 278.632 37.407L286.292 43.8349C286.382 43.9105 286.496 43.9519 286.614 43.9519H318.686C318.896 43.9519 319.084 43.8204 319.156 43.6229C319.228 43.4254 319.168 43.204 319.007 43.0689L311.347 36.641Z" fill="#9A1750" stroke="#E3E2DF" stroke-linejoin="round"/>
<path d="M305.2 18.4984C304.987 18.3253 304.674 18.3564 304.499 18.5681C304.324 18.7799 304.353 19.093 304.563 19.2695L312.224 25.6974L312.223 25.6974L312.23 25.7024L317.216 29.7535C317.429 29.9266 317.742 29.8955 317.916 29.6838C318.091 29.472 318.063 29.1589 317.852 28.9824L310.192 22.5545L310.192 22.5545L310.186 22.5495L305.2 18.4984Z" fill="#9A1750" stroke="#E3E2DF" stroke-linejoin="round"/>
<path d="M283.227 53.817C283.219 53.8102 283.21 53.8036 283.202 53.7973L278.778 50.5424C278.561 50.3824 278.256 50.4239 278.089 50.6361C277.922 50.8483 277.954 51.1546 278.161 51.3281L285.821 57.756C285.829 57.7628 285.838 57.7694 285.846 57.7757L290.269 61.0306C290.487 61.1906 290.792 61.1491 290.959 60.9369C291.126 60.7247 291.094 60.4184 290.887 60.2449L283.227 53.817Z" fill="#9A1750" stroke="#E3E2DF" stroke-linejoin="round"/>
<path d="M305.001 24.7997L305.001 24.7997L305.003 24.8017L312.661 31.2275L312.664 31.2296C312.875 31.4067 313.189 31.3797 313.367 31.1692C313.545 30.9587 313.519 30.644 313.309 30.4656L313.306 30.4636L311.943 29.3042L311.943 29.3042L311.94 29.3022L304.28 22.8743C304.069 22.6972 303.754 22.7242 303.576 22.9347C303.398 23.1452 303.424 23.4598 303.634 23.6383L305.001 24.7997Z" fill="#9A1750" stroke="#E3E2DF" stroke-linejoin="round"/>
<path d="M282.367 48.0907C282.151 47.9276 281.844 47.9667 281.675 48.1788C281.506 48.3909 281.537 48.6989 281.745 48.8731L289.405 55.301C289.412 55.3066 289.419 55.312 289.426 55.3172L291.557 56.9232C291.773 57.0863 292.08 57.0473 292.249 56.8351C292.418 56.623 292.387 56.3151 292.179 56.1409L284.519 49.713C284.512 49.7074 284.505 49.7019 284.498 49.6967L282.367 48.0907Z" fill="#9A1750" stroke="#E3E2DF" stroke-linejoin="round"/>
<path d="M303.634 23.6383L303.634 23.6383L303.637 23.6403L311.295 30.0662L311.297 30.0682C311.508 30.2453 311.823 30.2183 312.001 30.0078C312.178 29.7973 312.152 29.4826 311.942 29.3042L311.94 29.3022L310.477 28.0583L310.477 28.0583L310.474 28.0563L302.814 21.6284C302.603 21.4513 302.288 21.4783 302.11 21.6888C301.933 21.8993 301.959 22.2139 302.169 22.3924L303.634 23.6383Z" fill="#9A1750" stroke="#E3E2DF" stroke-linejoin="round"/>
<path d="M281.385 47.3506C281.169 47.1875 280.862 47.2266 280.693 47.4387C280.524 47.6508 280.555 47.9587 280.763 48.133L288.423 54.5609C288.43 54.5665 288.437 54.5719 288.444 54.5771L289.426 55.3172C289.642 55.4804 289.949 55.4413 290.118 55.2292C290.287 55.0171 290.256 54.7091 290.048 54.5349L282.388 48.107C282.381 48.1014 282.374 48.096 282.367 48.0908L281.385 47.3506Z" fill="#9A1750" stroke="#E3E2DF" stroke-linejoin="round"/>
<path d="M302.169 22.3924L302.169 22.3924L302.171 22.3944L309.831 28.8223C310.043 28.9994 310.357 28.9724 310.535 28.7619C310.713 28.5514 310.687 28.2368 310.477 28.0583L310.474 28.0563L310.346 27.9469L310.346 27.9469L310.343 27.9449L302.683 21.517C302.472 21.3399 302.157 21.3669 301.979 21.5774C301.802 21.7879 301.828 22.1025 302.038 22.281L302.169 22.3924Z" fill="#9A1750" stroke="#E3E2DF" stroke-linejoin="round"/>
<path d="M278.953 32.648C278.743 32.648 278.555 32.7795 278.484 32.977C278.412 33.1745 278.471 33.3959 278.632 33.531L286.292 39.9589C286.382 40.0345 286.496 40.0759 286.614 40.0759H314.582C314.792 40.0759 314.98 39.9444 315.052 39.7469C315.124 39.5494 315.064 39.328 314.903 39.1929L307.243 32.765C307.153 32.6894 307.039 32.648 306.921 32.648H278.953Z" fill="#9A1750" stroke="#E3E2DF" stroke-linejoin="round"/>
<path d="M304.045 17.5599C303.832 17.3868 303.519 17.4179 303.344 17.6296C303.169 17.8414 303.198 18.1545 303.408 18.331L311.068 24.7589L311.068 24.7589L311.075 24.7639L312.23 25.7024C312.443 25.8756 312.756 25.8444 312.93 25.6327C313.105 25.421 313.077 25.1078 312.866 24.9313L305.206 18.5034L305.206 18.5034L305.2 18.4984L304.045 17.5599Z" fill="#9A1750" stroke="#E3E2DF" stroke-linejoin="round"/>
<path d="M279.254 45.7447C279.038 45.5816 278.731 45.6206 278.562 45.8327C278.393 46.0449 278.424 46.3528 278.632 46.527L286.292 52.9549C286.299 52.9605 286.306 52.9659 286.313 52.9712L288.444 54.5771C288.66 54.7403 288.967 54.7012 289.136 54.4891C289.305 54.277 289.274 53.969 289.066 53.7948L281.406 47.3669C281.399 47.3613 281.392 47.3559 281.385 47.3506L279.254 45.7447Z" fill="#9A1750" stroke="#E3E2DF" stroke-linejoin="round"/>
<path d="M278.803 50.5621C278.795 50.5553 278.787 50.5487 278.778 50.5424L275.146 47.8693C274.928 47.7093 274.623 47.7508 274.456 47.963C274.289 48.1752 274.321 48.4815 274.528 48.655L282.188 55.0829C282.197 55.0897 282.205 55.0963 282.213 55.1026L285.846 57.7757C286.064 57.9357 286.369 57.8942 286.536 57.682C286.702 57.4698 286.671 57.1635 286.464 56.99L278.803 50.5621Z" fill="#9A1750" stroke="#E3E2DF" stroke-linejoin="round"/>
<path d="M279.275 36.641C279.126 36.5161 278.918 36.4887 278.742 36.5708C278.566 36.653 278.453 36.8297 278.453 37.024V46.144C278.453 46.2918 278.519 46.432 278.632 46.527L286.292 52.9549C286.441 53.0798 286.649 53.1072 286.825 53.025C287.001 52.9429 287.114 52.7662 287.114 52.5719V43.4519C287.114 43.3041 287.048 43.1639 286.935 43.0689L279.275 36.641Z" fill="#9A1750" stroke="#E3E2DF" stroke-linejoin="round"/>
<path d="M302.683 21.517C302.593 21.4414 302.479 21.4 302.361 21.4H284.197C283.987 21.4 283.799 21.5315 283.728 21.729C283.656 21.9265 283.715 22.1479 283.876 22.283L291.536 28.7109C291.626 28.7865 291.74 28.8279 291.858 28.8279H310.022C310.232 28.8279 310.42 28.6964 310.492 28.4989C310.564 28.3014 310.504 28.08 310.343 27.9449L302.683 21.517Z" fill="#9A1750" stroke="#E3E2DF" stroke-linejoin="round"/>
<path d="M268.3 53.817C268.21 53.7414 268.096 53.7 267.979 53.7H263.875C263.664 53.7 263.477 53.8315 263.405 54.029C263.333 54.2265 263.392 54.4479 263.553 54.583L271.214 61.0109C271.304 61.0865 271.417 61.1279 271.535 61.1279H275.639C275.849 61.1279 276.037 60.9964 276.109 60.7989C276.181 60.6014 276.121 60.38 275.96 60.2449L268.3 53.817Z" fill="#9A1750" stroke="#E3E2DF" stroke-linejoin="round"/>
<path d="M282.829 17.448C282.619 17.448 282.431 17.5795 282.36 17.777C282.288 17.9745 282.347 18.1959 282.508 18.331L290.168 24.7589C290.259 24.8345 290.372 24.8759 290.49 24.8759H311.39C311.6 24.8759 311.788 24.7444 311.86 24.5469C311.932 24.3494 311.872 24.128 311.711 23.9929L304.051 17.565C303.961 17.4894 303.847 17.448 303.729 17.448H282.829Z" fill="#9A1750" stroke="#E3E2DF" stroke-linejoin="round"/>
<path d="M263.375 54.2C263.375 54.3478 263.44 54.488 263.553 54.583L271.214 61.0109C271.362 61.1358 271.57 61.1632 271.746 61.081C271.922 60.9989 272.035 60.8222 272.035 60.6279V57.4359C272.035 57.2881 271.97 57.1479 271.856 57.0529L264.196 50.625C264.047 50.5001 263.839 50.4727 263.663 50.5548C263.487 50.637 263.375 50.8137 263.375 51.008V54.2Z" fill="#9A1750" stroke="#E3E2DF" stroke-linejoin="round"/>
<path d="M264.196 50.625C264.018 50.4756 263.76 50.4686 263.575 50.608L259.319 53.8C259.196 53.8916 259.123 54.0338 259.119 54.1863C259.115 54.3389 259.18 54.485 259.297 54.583L266.958 61.0109C267.136 61.1603 267.393 61.1673 267.579 61.0279L271.835 57.8359C271.957 57.7443 272.031 57.6021 272.035 57.4495C272.039 57.297 271.973 57.1509 271.856 57.0529L264.196 50.625Z" fill="#9A1750" stroke="#E3E2DF" stroke-linejoin="round"/>
<path d="M274.349 48.272C274.349 48.4198 274.415 48.56 274.528 48.655L282.188 55.0829C282.337 55.2078 282.545 55.2352 282.721 55.153C282.897 55.0709 283.01 54.8942 283.01 54.6999V30.2279C283.01 30.0801 282.944 29.9399 282.831 29.8449L275.171 23.417C275.022 23.2921 274.814 23.2647 274.638 23.3468C274.462 23.429 274.349 23.6057 274.349 23.8V48.272Z" fill="#9A1750" stroke="#E3E2DF" stroke-linejoin="round"/>
<path d="M279.275 25.545C279.126 25.4201 278.918 25.3927 278.742 25.4749C278.566 25.557 278.453 25.7337 278.453 25.928V33.148C278.453 33.2958 278.519 33.436 278.632 33.531L286.292 39.9589C286.441 40.0838 286.649 40.1112 286.825 40.029C287.001 39.9469 287.114 39.7702 287.114 39.5759V32.3559C287.114 32.2081 287.048 32.0679 286.935 31.9729L279.275 25.545Z" fill="#9A1750" stroke="#E3E2DF" stroke-linejoin="round"/>
<path d="M284.519 21.517C284.339 21.3662 284.079 21.3606 283.893 21.5035L278.649 25.5315C278.529 25.6238 278.457 25.7657 278.453 25.9172C278.45 26.0688 278.516 26.2136 278.632 26.311L286.292 32.7389C286.472 32.8897 286.732 32.8953 286.918 32.7524L292.162 28.7244C292.283 28.6321 292.354 28.4902 292.358 28.3387C292.361 28.1871 292.295 28.0423 292.179 27.9449L284.519 21.517Z" fill="#9A1750" stroke="#E3E2DF" stroke-linejoin="round"/>
<path d="M258.326 49.6995C258.206 49.7918 258.134 49.9337 258.131 50.0852C258.127 50.2368 258.193 50.3816 258.309 50.479L265.97 56.9069C266.149 57.0577 266.41 57.0633 266.596 56.9204L271.84 52.8924C271.96 52.8001 272.032 52.6582 272.035 52.5067C272.038 52.3551 271.972 52.2103 271.856 52.1129L264.196 45.685C264.016 45.5342 263.756 45.5286 263.57 45.6715L258.326 49.6995Z" fill="#9A1750" stroke="#E3E2DF" stroke-linejoin="round"/>
<path d="M274.554 23.3968C274.43 23.4876 274.355 23.6302 274.35 23.7837C274.345 23.9371 274.41 24.0843 274.528 24.183L282.188 30.6109C282.365 30.759 282.62 30.7673 282.805 30.6311L290.786 24.7791C290.909 24.6883 290.985 24.5457 290.99 24.3922C290.995 24.2388 290.929 24.0915 290.811 23.9929L283.151 17.565C282.974 17.4169 282.719 17.4086 282.534 17.5448L274.554 23.3968Z" fill="#9A1750" stroke="#E3E2DF" stroke-linejoin="round"/>
<path d="M259.94 53.817C259.85 53.7414 259.736 53.7 259.619 53.7H239.099C238.888 53.7 238.701 53.8315 238.629 54.029C238.557 54.2265 238.616 54.4479 238.777 54.583L246.438 61.0109C246.528 61.0865 246.641 61.1279 246.759 61.1279H267.279C267.489 61.1279 267.677 60.9964 267.749 60.7989C267.821 60.6014 267.761 60.38 267.6 60.2449L259.94 53.817Z" fill="#9A1750" stroke="#E3E2DF" stroke-linejoin="round"/>
<path d="M263.375 46.068C263.375 46.2158 263.44 46.356 263.553 46.451L271.214 52.8789C271.362 53.0038 271.57 53.0312 271.746 52.949C271.922 52.8669 272.035 52.6902 272.035 52.4959V34.1039C272.035 33.9561 271.97 33.8159 271.856 33.7209L264.196 27.293C264.047 27.1681 263.839 27.1407 263.663 27.2228C263.487 27.305 263.375 27.4817 263.375 27.676V46.068Z" fill="#9A1750" stroke="#E3E2DF" stroke-linejoin="round"/>
<path d="M240.542 49.596C240.332 49.596 240.145 49.7275 240.073 49.925C240.001 50.1225 240.06 50.3439 240.221 50.479L247.882 56.9069C247.972 56.9825 248.085 57.0239 248.203 57.0239H266.291C266.501 57.0239 266.689 56.8924 266.761 56.6949C266.833 56.4974 266.773 56.276 266.612 56.1409L258.952 49.713C258.862 49.6374 258.748 49.596 258.63 49.596H240.542Z" fill="#9A1750" stroke="#E3E2DF" stroke-linejoin="round"/>
<path d="M268.3 0.844982C268.151 0.720079 267.943 0.692729 267.767 0.774851C267.591 0.856972 267.479 1.03369 267.479 1.228V54.2C267.479 54.3478 267.544 54.488 267.657 54.583L275.318 61.0109C275.466 61.1358 275.674 61.1632 275.85 61.081C276.026 60.9989 276.139 60.8222 276.139 60.6279V7.65588C276.139 7.50808 276.074 7.36786 275.96 7.27286L268.3 0.844982Z" fill="#9A1750" stroke="#E3E2DF" stroke-linejoin="round"/>
<path d="M239.42 53.817L239.42 53.8169L239.414 53.8119L238.259 52.8737C238.046 52.7005 237.733 52.7317 237.558 52.9434C237.383 53.1552 237.412 53.4683 237.622 53.6448L245.283 60.0727L245.283 60.0727L245.289 60.0777L246.444 61.0159C246.657 61.1891 246.97 61.158 247.144 60.9462C247.319 60.7345 247.291 60.4214 247.08 60.2449L239.42 53.817Z" fill="#9A1750" stroke="#E3E2DF" stroke-linejoin="round"/>
<path d="M240.539 49.4522C240.326 49.2806 240.014 49.3129 239.84 49.5247C239.666 49.7366 239.695 50.0489 239.905 50.225L247.565 56.6529L247.565 56.653L247.574 56.6597L247.89 56.9137C248.103 57.0853 248.415 57.053 248.589 56.8412C248.763 56.6293 248.734 56.317 248.524 56.1409L240.864 49.713L240.864 49.7129L240.856 49.7062L240.539 49.4522Z" fill="#9A1750" stroke="#E3E2DF" stroke-linejoin="round"/>
<path d="M263.792 21.2578C263.588 21.0863 263.285 21.1054 263.104 21.3013C262.923 21.4971 262.927 21.8007 263.114 21.9911L263.518 22.4023C263.529 22.4138 263.541 22.4247 263.553 22.435L271.214 28.8629C271.418 29.0344 271.721 29.0152 271.902 28.8194C272.083 28.6235 272.079 28.32 271.892 28.1296L271.488 27.7184C271.477 27.7069 271.465 27.696 271.453 27.6856L263.792 21.2578Z" fill="#9A1750" stroke="#E3E2DF" stroke-linejoin="round"/>
<path d="M263.507 28.0149C263.521 28.0306 263.537 28.0453 263.553 28.059L271.214 34.4869C271.416 34.6564 271.715 34.6399 271.897 34.4491C272.079 34.2583 272.081 33.9588 271.903 33.7649L266.507 27.9129C266.492 27.8973 266.477 27.8826 266.46 27.8689L258.8 21.441C258.598 21.2714 258.299 21.288 258.117 21.4788C257.935 21.6696 257.932 21.969 258.111 22.1629L263.507 28.0149Z" fill="#9A1750" stroke="#E3E2DF" stroke-linejoin="round"/>
<path d="M239.609 48.7044C239.395 48.5328 239.083 48.5651 238.909 48.7769C238.735 48.9888 238.764 49.3011 238.974 49.4772L246.634 55.9051L246.634 55.9052L246.643 55.9119L247.574 56.6597C247.787 56.8313 248.099 56.799 248.273 56.5872C248.447 56.3754 248.418 56.063 248.208 55.8869L240.548 49.459L240.548 49.4589L240.539 49.4522L239.609 48.7044Z" fill="#9A1750" stroke="#E3E2DF" stroke-linejoin="round"/>
<path d="M237.467 46.984C237.253 46.8123 236.941 46.8447 236.767 47.0565C236.593 47.2683 236.622 47.5806 236.832 47.7568L244.493 54.1847L244.493 54.1848L244.501 54.1915L246.643 55.9119C246.856 56.0835 247.168 56.0512 247.342 55.8394C247.516 55.6276 247.487 55.3152 247.277 55.1391L239.617 48.7112L239.617 48.7111L239.609 48.7044L237.467 46.984Z" fill="#9A1750" stroke="#E3E2DF" stroke-linejoin="round"/>
<path d="M260.496 17.9002C260.291 17.7287 259.988 17.7479 259.807 17.9438C259.626 18.1396 259.631 18.4432 259.817 18.6335L263.114 21.9911C263.125 22.0025 263.137 22.0135 263.149 22.0238L270.81 28.4517C271.014 28.6232 271.317 28.604 271.498 28.4081C271.679 28.2123 271.675 27.9087 271.488 27.7184L268.191 24.3608C268.18 24.3493 268.168 24.3384 268.156 24.3281L260.496 17.9002Z" fill="#9A1750" stroke="#E3E2DF" stroke-linejoin="round"/>
<path d="M238.265 52.8787L238.265 52.8787L238.259 52.8737L233.273 48.8222C233.059 48.649 232.747 48.6801 232.572 48.8919C232.397 49.1036 232.426 49.4168 232.636 49.5933L240.296 56.0211L240.296 56.0212L240.302 56.0262L245.289 60.0777C245.502 60.2509 245.815 60.2197 245.99 60.008C246.165 59.7963 246.136 59.4831 245.926 59.3066L238.265 52.8787Z" fill="#9A1750" stroke="#E3E2DF" stroke-linejoin="round"/>
<path d="M236.536 46.2362C236.322 46.0645 236.01 46.0969 235.836 46.3087C235.662 46.5205 235.691 46.8328 235.901 47.009L243.562 53.4369L243.562 53.437L243.57 53.4437L244.501 54.1915C244.715 54.3631 245.027 54.3307 245.2 54.1189C245.374 53.9071 245.345 53.5948 245.135 53.4186L237.475 46.9908L237.475 46.9907L237.467 46.984L236.536 46.2362Z" fill="#9A1750" stroke="#E3E2DF" stroke-linejoin="round"/>
<path d="M260.092 17.489C259.888 17.3175 259.585 17.3367 259.403 17.5325C259.222 17.7284 259.227 18.0319 259.414 18.2223L259.817 18.6335C259.829 18.645 259.841 18.6559 259.853 18.6663L267.513 25.0941C267.718 25.2656 268.021 25.2464 268.202 25.0506C268.383 24.8547 268.378 24.5512 268.191 24.3608L267.788 23.9496C267.776 23.9381 267.765 23.9272 267.752 23.9169L260.092 17.489Z" fill="#9A1750" stroke="#E3E2DF" stroke-linejoin="round"/>
<path d="M236.22 45.9822C236.006 45.8106 235.694 45.8429 235.52 46.0547C235.346 46.2665 235.375 46.5789 235.585 46.755L243.246 53.1829L243.245 53.183L243.254 53.1897L243.57 53.4437C243.784 53.6153 244.096 53.583 244.27 53.3711C244.443 53.1593 244.414 52.847 244.205 52.6708L236.544 46.243L236.544 46.2429L236.536 46.2362L236.22 45.9822Z" fill="#9A1750" stroke="#E3E2DF" stroke-linejoin="round"/>
<path d="M263.375 22.052C263.375 22.1998 263.44 22.34 263.553 22.435L271.214 28.8629C271.362 28.9878 271.57 29.0152 271.746 28.933C271.922 28.8509 272.035 28.6742 272.035 28.4799V7.65588C272.035 7.50808 271.97 7.36786 271.856 7.27286L264.196 0.844982C264.047 0.720079 263.839 0.692729 263.663 0.774851C263.487 0.856972 263.375 1.03369 263.375 1.228V22.052Z" fill="#9A1750" stroke="#E3E2DF" stroke-linejoin="round"/>
<path d="M233.279 48.8272L233.279 48.8272L233.273 48.8222L232.118 47.8839C231.905 47.7108 231.592 47.7419 231.417 47.9536C231.242 48.1654 231.271 48.4785 231.481 48.655L239.142 55.0829L239.142 55.0829L239.148 55.0879L240.302 56.0262C240.516 56.1993 240.828 56.1682 241.003 55.9565C241.178 55.7447 241.149 55.4316 240.939 55.2551L233.279 48.8272Z" fill="#9A1750" stroke="#E3E2DF" stroke-linejoin="round"/>
<path d="M258.8 21.441C258.71 21.3654 258.596 21.324 258.479 21.324H240.542C240.332 21.324 240.145 21.4555 240.073 21.653C240.001 21.8505 240.06 22.0719 240.221 22.207L247.882 28.6349C247.972 28.7105 248.085 28.7519 248.203 28.7519H266.139C266.349 28.7519 266.537 28.6204 266.609 28.4229C266.681 28.2254 266.621 28.004 266.46 27.8689L258.8 21.441Z" fill="#9A1750" stroke="#E3E2DF" stroke-linejoin="round"/>
<path d="M263.875 0.728004C263.664 0.728004 263.477 0.859472 263.405 1.05699C263.333 1.25452 263.392 1.47591 263.553 1.61103L271.214 8.0389C271.304 8.11446 271.417 8.15588 271.535 8.15588H275.639C275.849 8.15588 276.037 8.02441 276.109 7.82689C276.181 7.62937 276.121 7.40797 275.96 7.27286L268.3 0.844982C268.21 0.769422 268.096 0.728004 267.979 0.728004H263.875Z" fill="#9A1750" stroke="#E3E2DF" stroke-linejoin="round"/>
<path d="M236.228 25.241C236.079 25.1161 235.871 25.0887 235.695 25.1709C235.519 25.253 235.406 25.4297 235.406 25.624V46.372C235.406 46.5198 235.472 46.66 235.585 46.755L243.246 53.1829C243.394 53.3078 243.602 53.3352 243.778 53.253C243.954 53.1709 244.067 52.9942 244.067 52.7999V32.0519C244.067 31.9041 244.002 31.7639 243.888 31.6689L236.228 25.241Z" fill="#9A1750" stroke="#E3E2DF" stroke-linejoin="round"/>
<path d="M226.055 48.041C225.878 47.8922 225.621 47.8846 225.436 48.0226L217.456 53.9506C217.333 54.0419 217.259 54.1843 217.254 54.3372C217.249 54.4901 217.315 54.6367 217.432 54.735L225.093 61.1629C225.27 61.3117 225.527 61.3193 225.712 61.1813L233.692 55.2533C233.815 55.162 233.889 55.0196 233.894 54.8667C233.899 54.7138 233.833 54.5672 233.716 54.4689L226.055 48.041Z" fill="#9A1750" stroke="#E3E2DF" stroke-linejoin="round"/>
<path d="M239.099 17.372C238.888 17.372 238.701 17.5035 238.629 17.701C238.557 17.8985 238.616 18.1199 238.777 18.255L246.438 24.6829C246.528 24.7585 246.641 24.7999 246.759 24.7999H267.431C267.641 24.7999 267.829 24.6684 267.901 24.4709C267.973 24.2734 267.913 24.052 267.752 23.9169L260.092 17.489C260.002 17.4134 259.888 17.372 259.771 17.372H239.099Z" fill="#9A1750" stroke="#E3E2DF" stroke-linejoin="round"/>
<path d="M231.302 48.272C231.302 48.4198 231.368 48.56 231.481 48.655L239.142 55.0829C239.29 55.2078 239.498 55.2351 239.674 55.153C239.85 55.0709 239.963 54.8942 239.963 54.6999V30.1519C239.963 30.0041 239.898 29.8639 239.784 29.7689L232.124 23.341C231.975 23.2161 231.767 23.1887 231.591 23.2708C231.415 23.353 231.302 23.5297 231.302 23.724V48.272Z" fill="#9A1750" stroke="#E3E2DF" stroke-linejoin="round"/>
<path d="M216.012 49.8466C215.889 49.9379 215.815 50.0803 215.81 50.2332C215.806 50.3861 215.871 50.5327 215.988 50.631L223.649 57.0589C223.826 57.2077 224.083 57.2153 224.268 57.0773L229.588 53.1253C229.711 53.034 229.786 52.8916 229.79 52.7387C229.795 52.5858 229.729 52.4392 229.612 52.3409L221.951 45.913C221.774 45.7642 221.518 45.7566 221.332 45.8946L216.012 49.8466Z" fill="#9A1750" stroke="#E3E2DF" stroke-linejoin="round"/>
<path d="M240.864 21.441C240.68 21.2864 240.412 21.2849 240.226 21.4373L235.59 25.2373C235.474 25.3316 235.407 25.4723 235.407 25.6211C235.406 25.7699 235.471 25.9114 235.585 26.007L243.246 32.4349C243.43 32.5895 243.698 32.591 243.884 32.4386L248.52 28.6386C248.635 28.5442 248.702 28.4036 248.703 28.2548C248.704 28.106 248.638 27.9645 248.524 27.8689L240.864 21.441Z" fill="#9A1750" stroke="#E3E2DF" stroke-linejoin="round"/>
<path d="M226.055 23.417C225.906 23.2921 225.699 23.2647 225.522 23.3468C225.346 23.429 225.234 23.6057 225.234 23.8V48.424C225.234 48.5718 225.299 48.712 225.412 48.807L233.073 55.2349C233.222 55.3598 233.429 55.3872 233.606 55.305C233.782 55.2229 233.894 55.0462 233.894 54.8519V30.2279C233.894 30.0801 233.829 29.9399 233.716 29.8449L226.055 23.417Z" fill="#9A1750" stroke="#E3E2DF" stroke-linejoin="round"/>
<path d="M218.075 53.969C217.985 53.8934 217.871 53.852 217.754 53.852H198.222C198.012 53.852 197.824 53.9835 197.752 54.181C197.68 54.3785 197.739 54.5999 197.9 54.735L205.561 61.1629C205.651 61.2385 205.765 61.2799 205.882 61.2799H225.414C225.624 61.2799 225.812 61.1484 225.884 60.9509C225.956 60.7534 225.897 60.532 225.736 60.3969L218.075 53.969Z" fill="#9A1750" stroke="#E3E2DF" stroke-linejoin="round"/>
<path d="M231.49 23.334C231.373 23.4277 231.304 23.5688 231.303 23.7185C231.301 23.8682 231.366 24.0108 231.481 24.107L239.142 30.5349C239.324 30.6882 239.59 30.6911 239.776 30.5419L247.072 24.6899C247.189 24.5962 247.257 24.4551 247.259 24.3054C247.261 24.1557 247.195 24.0131 247.08 23.9169L239.42 17.489C239.237 17.3357 238.972 17.3328 238.786 17.482L231.49 23.334Z" fill="#9A1750" stroke="#E3E2DF" stroke-linejoin="round"/>
<path d="M221.13 46.296C221.13 46.4438 221.195 46.584 221.308 46.679L228.969 53.1069C229.118 53.2318 229.325 53.2592 229.502 53.177C229.678 53.0949 229.79 52.9182 229.79 52.7239V32.2799C229.79 32.1321 229.725 31.9919 229.612 31.8969L221.951 25.469C221.802 25.3441 221.595 25.3167 221.418 25.3989C221.242 25.481 221.13 25.6577 221.13 25.852V46.296Z" fill="#9A1750" stroke="#E3E2DF" stroke-linejoin="round"/>
<path d="M199.59 49.748C199.38 49.748 199.192 49.8795 199.12 50.077C199.048 50.2745 199.107 50.4959 199.268 50.631L206.929 57.0589C207.019 57.1345 207.133 57.1759 207.25 57.1759H223.97C224.18 57.1759 224.368 57.0444 224.44 56.8469C224.512 56.6494 224.453 56.428 224.292 56.2929L216.631 49.865C216.541 49.7894 216.427 49.748 216.31 49.748H199.59Z" fill="#9A1750" stroke="#E3E2DF" stroke-linejoin="round"/>
<path d="M222.593 20.877C222.376 20.7175 222.071 20.7593 221.904 20.9715C221.738 21.1838 221.77 21.4899 221.976 21.6633L229.637 28.0911C229.645 28.0981 229.654 28.1049 229.662 28.1113L233.099 30.6311C233.316 30.7906 233.621 30.7488 233.788 30.5366C233.954 30.3244 233.922 30.0183 233.716 29.8449L226.055 23.417C226.047 23.41 226.038 23.4032 226.029 23.3968L222.593 20.877Z" fill="#9A1750" stroke="#E3E2DF" stroke-linejoin="round"/>
<path d="M221.951 25.469C221.944 25.4626 221.936 25.4565 221.928 25.4506L219.309 23.5049C219.092 23.3436 218.786 23.3842 218.618 23.5963C218.451 23.8085 218.482 24.1155 218.689 24.2893L226.35 30.7171C226.357 30.7235 226.365 30.7296 226.373 30.7355L228.992 32.6813C229.209 32.8425 229.515 32.802 229.683 32.5898C229.85 32.3776 229.819 32.0707 229.612 31.8969L221.951 25.469Z" fill="#9A1750" stroke="#E3E2DF" stroke-linejoin="round"/>
<path d="M198.543 53.969C198.535 53.9622 198.527 53.9556 198.518 53.9493L194.095 50.6944C193.877 50.5344 193.572 50.5759 193.405 50.7881C193.239 51.0003 193.27 51.3066 193.477 51.4801L201.138 57.908C201.146 57.9148 201.154 57.9214 201.163 57.9277L205.586 61.1826C205.803 61.3426 206.108 61.3011 206.275 61.0889C206.442 60.8767 206.41 60.5704 206.204 60.3969L198.543 53.969Z" fill="#9A1750" stroke="#E3E2DF" stroke-linejoin="round"/>
<path d="M197.187 47.8404C196.97 47.6792 196.664 47.7197 196.497 47.9319C196.329 48.1441 196.361 48.451 196.568 48.6248L204.228 55.0527C204.236 55.0591 204.244 55.0652 204.251 55.0711L206.952 57.0773C207.169 57.2385 207.475 57.198 207.643 56.9858C207.81 56.7736 207.779 56.4667 207.572 56.2929L199.911 49.865C199.904 49.8586 199.896 49.8525 199.888 49.8466L197.187 47.8404Z" fill="#9A1750" stroke="#E3E2DF" stroke-linejoin="round"/>
<path d="M219.332 23.5232C219.324 23.5169 219.317 23.5108 219.309 23.5049L216.608 21.4986C216.391 21.3374 216.085 21.3779 215.917 21.5901C215.75 21.8023 215.781 22.1092 215.988 22.283L223.649 28.7109C223.656 28.7172 223.664 28.7234 223.672 28.7292L226.373 30.7355C226.59 30.8967 226.896 30.8562 227.063 30.644C227.231 30.4319 227.199 30.1249 226.992 29.9511L219.332 23.5232Z" fill="#9A1750" stroke="#E3E2DF" stroke-linejoin="round"/>
<path d="M218.049 17.5448C217.832 17.3853 217.527 17.4271 217.36 17.6393C217.194 17.8515 217.226 18.1576 217.432 18.331L225.093 24.7589C225.101 24.7659 225.11 24.7726 225.119 24.7791L229.663 28.1113C229.88 28.2709 230.185 28.229 230.352 28.0168C230.518 27.8046 230.486 27.4985 230.28 27.3251L222.619 20.8972C222.611 20.8902 222.602 20.8835 222.593 20.877L218.049 17.5448Z" fill="#9A1750" stroke="#E3E2DF" stroke-linejoin="round"/>
<path d="M194.568 45.8946C194.351 45.7334 194.045 45.7739 193.877 45.9861C193.71 46.1983 193.741 46.5052 193.948 46.679L201.609 53.1069C201.616 53.1132 201.624 53.1194 201.632 53.1253L204.251 55.0711C204.468 55.2323 204.774 55.1918 204.942 54.9796C205.11 54.7674 205.078 54.4605 204.871 54.2867L197.211 47.8588C197.203 47.8525 197.195 47.8463 197.187 47.8404L194.568 45.8946Z" fill="#9A1750" stroke="#E3E2DF" stroke-linejoin="round"/>
<path d="M194.12 50.7141C194.112 50.7073 194.103 50.7007 194.095 50.6944L190.462 48.0213C190.245 47.8613 189.94 47.9028 189.773 48.115C189.606 48.3272 189.638 48.6335 189.844 48.807L197.505 55.2349C197.513 55.2417 197.521 55.2483 197.53 55.2546L201.163 57.9277C201.38 58.0877 201.685 58.0462 201.852 57.834C202.019 57.6218 201.987 57.3155 201.78 57.142L194.12 50.7141Z" fill="#9A1750" stroke="#E3E2DF" stroke-linejoin="round"/>
<path d="M216.631 21.517C216.541 21.4414 216.427 21.4 216.31 21.4H199.59C199.38 21.4 199.192 21.5315 199.12 21.729C199.048 21.9265 199.107 22.1479 199.268 22.283L206.929 28.7109C207.019 28.7865 207.133 28.8279 207.25 28.8279H223.97C224.18 28.8279 224.368 28.6964 224.44 28.4989C224.512 28.3014 224.453 28.08 224.292 27.9449L216.631 21.517Z" fill="#9A1750" stroke="#E3E2DF" stroke-linejoin="round"/>
<path d="M194.591 25.469C194.442 25.3441 194.235 25.3167 194.058 25.3989C193.882 25.481 193.77 25.6577 193.77 25.852V46.296C193.77 46.4438 193.835 46.584 193.948 46.679L201.609 53.1069C201.758 53.2318 201.965 53.2592 202.142 53.177C202.318 53.0949 202.43 52.9182 202.43 52.7239V32.2799C202.43 32.1321 202.365 31.9919 202.252 31.8969L194.591 25.469Z" fill="#9A1750" stroke="#E3E2DF" stroke-linejoin="round"/>
<path d="M198.222 17.448C198.012 17.448 197.824 17.5795 197.752 17.777C197.68 17.9745 197.739 18.1959 197.9 18.331L205.561 24.7589C205.651 24.8345 205.765 24.8759 205.882 24.8759H225.414C225.624 24.8759 225.812 24.7444 225.884 24.5469C225.956 24.3494 225.897 24.128 225.736 23.9929L218.075 17.565C217.985 17.4894 217.871 17.448 217.754 17.448H198.222Z" fill="#9A1750" stroke="#E3E2DF" stroke-linejoin="round"/>
<path d="M183.638 47.889C183.452 47.7334 183.182 47.733 182.996 47.8879L175.7 53.9679C175.586 54.0627 175.521 54.2031 175.52 54.3512C175.52 54.4992 175.585 54.6398 175.699 54.735L183.359 61.1629C183.545 61.3185 183.815 61.3189 184.001 61.164L191.297 55.084C191.411 54.9892 191.476 54.8488 191.477 54.7007C191.477 54.5526 191.412 54.412 191.298 54.3169L183.638 47.889Z" fill="#9A1750" stroke="#E3E2DF" stroke-linejoin="round"/>
<path d="M183.638 41.733C183.489 41.6081 183.281 41.5807 183.105 41.6628C182.929 41.745 182.816 41.9217 182.816 42.116V48.272C182.816 48.4198 182.882 48.56 182.995 48.655L190.655 55.0829C190.804 55.2078 191.012 55.2352 191.188 55.153C191.364 55.0709 191.477 54.8942 191.477 54.6999V48.5439C191.477 48.3961 191.411 48.2559 191.298 48.1609L183.638 41.733Z" fill="#9A1750" stroke="#E3E2DF" stroke-linejoin="round"/>
<path d="M189.666 48.424C189.666 48.5718 189.731 48.712 189.844 48.807L197.505 55.2349C197.654 55.3598 197.861 55.3872 198.038 55.305C198.214 55.2229 198.326 55.0462 198.326 54.8519V30.2279C198.326 30.0801 198.261 29.9399 198.148 29.8449L190.487 23.417C190.338 23.2921 190.131 23.2647 189.954 23.3468C189.778 23.429 189.666 23.6057 189.666 23.8V48.424Z" fill="#9A1750" stroke="#E3E2DF" stroke-linejoin="round"/>
<path d="M174.328 49.867C174.216 49.9624 174.152 50.1024 174.152 50.2496C174.153 50.3968 174.218 50.5364 174.331 50.631L181.991 57.0589C182.178 57.2156 182.451 57.2148 182.637 57.0569L187.197 53.1808C187.309 53.0855 187.373 52.9455 187.373 52.7983C187.372 52.651 187.307 52.5115 187.194 52.4169L179.534 45.989C179.347 45.8322 179.074 45.8331 178.888 45.991L174.328 49.867Z" fill="#9A1750" stroke="#E3E2DF" stroke-linejoin="round"/>
<path d="M199.911 21.517C199.734 21.3682 199.477 21.3606 199.292 21.4986L193.972 25.4506C193.849 25.5419 193.775 25.6843 193.77 25.8372C193.765 25.9901 193.831 26.1367 193.948 26.235L201.609 32.6629C201.786 32.8117 202.043 32.8193 202.228 32.6812L207.548 28.7292C207.671 28.638 207.745 28.4956 207.75 28.3427C207.755 28.1898 207.689 28.0432 207.572 27.9449L199.911 21.517Z" fill="#9A1750" stroke="#E3E2DF" stroke-linejoin="round"/>
<path d="M179.212 41.616C179.002 41.616 178.814 41.7475 178.742 41.945C178.671 42.1425 178.73 42.3639 178.891 42.499L186.551 48.9269C186.641 49.0025 186.755 49.0439 186.873 49.0439H190.977C191.187 49.0439 191.375 48.9124 191.447 48.7149C191.518 48.5174 191.459 48.296 191.298 48.1609L183.638 41.733C183.548 41.6574 183.434 41.616 183.316 41.616H179.212Z" fill="#9A1750" stroke="#E3E2DF" stroke-linejoin="round"/>
<path d="M178.712 46.372C178.712 46.5198 178.778 46.66 178.891 46.755L186.551 53.1829C186.7 53.3078 186.908 53.3352 187.084 53.253C187.26 53.1709 187.373 52.9942 187.373 52.7999V48.5439C187.373 48.3961 187.307 48.2559 187.194 48.1609L179.534 41.733C179.385 41.6081 179.177 41.5807 179.001 41.6628C178.825 41.745 178.712 41.9217 178.712 42.116V46.372Z" fill="#9A1750" stroke="#E3E2DF" stroke-linejoin="round"/>
<path d="M189.872 23.3955C189.747 23.4859 189.671 23.6287 189.666 23.7825C189.661 23.9364 189.726 24.0841 189.844 24.183L197.505 30.6109C197.681 30.7584 197.934 30.7673 198.12 30.6324L206.176 24.7804C206.301 24.6899 206.377 24.5472 206.382 24.3933C206.387 24.2395 206.322 24.0918 206.204 23.9929L198.543 17.565C198.367 17.4174 198.114 17.4086 197.928 17.5435L189.872 23.3955Z" fill="#9A1750" stroke="#E3E2DF" stroke-linejoin="round"/>
<path d="M176.342 53.969C176.252 53.8934 176.138 53.852 176.02 53.852H155.12C154.91 53.852 154.722 53.9835 154.65 54.181C154.579 54.3785 154.638 54.5999 154.799 54.735L162.459 61.1629C162.549 61.2385 162.663 61.2799 162.781 61.2799H183.681C183.891 61.2799 184.079 61.1484 184.151 60.9509C184.222 60.7534 184.163 60.532 184.002 60.3969L176.342 53.969Z" fill="#9A1750" stroke="#E3E2DF" stroke-linejoin="round"/>
<path d="M156.336 49.748C156.126 49.748 155.938 49.8795 155.866 50.077C155.795 50.2745 155.854 50.4959 156.015 50.631L163.675 57.0589C163.765 57.1345 163.879 57.1759 163.997 57.1759H182.313C182.523 57.1759 182.711 57.0444 182.783 56.8469C182.854 56.6494 182.795 56.428 182.634 56.2929L174.974 49.865C174.884 49.7894 174.77 49.748 174.652 49.748H156.336Z" fill="#9A1750" stroke="#E3E2DF" stroke-linejoin="round"/>
<path d="M183.638 29.725C183.548 29.6494 183.434 29.608 183.316 29.608H179.212C179.002 29.608 178.814 29.7395 178.742 29.937C178.671 30.1345 178.73 30.3559 178.891 30.491L186.551 36.9189C186.641 36.9945 186.755 37.0359 186.873 37.0359H190.977C191.187 37.0359 191.375 36.9044 191.447 36.7069C191.518 36.5094 191.459 36.288 191.298 36.1529L183.638 29.725Z" fill="#9A1750" stroke="#E3E2DF" stroke-linejoin="round"/>
<path d="M183.638 23.493C183.489 23.3681 183.281 23.3407 183.105 23.4228C182.929 23.505 182.816 23.6817 182.816 23.876V30.108C182.816 30.2558 182.882 30.396 182.995 30.491L190.655 36.9189C190.804 37.0438 191.012 37.0712 191.188 36.989C191.364 36.9069 191.477 36.7302 191.477 36.5359V30.3039C191.477 30.1561 191.411 30.0159 191.298 29.9209L183.638 23.493Z" fill="#9A1750" stroke="#E3E2DF" stroke-linejoin="round"/>
<path d="M183.177 23.1138C182.964 22.9389 182.651 22.9687 182.475 23.1803C182.299 23.392 182.327 23.706 182.538 23.8829L190.198 30.3108L190.198 30.3108L190.202 30.3139L190.659 30.69C190.872 30.8648 191.185 30.8351 191.361 30.6234C191.537 30.4118 191.509 30.0978 191.298 29.9209L183.638 23.493L183.638 23.493L183.634 23.4899L183.177 23.1138Z" fill="#9A1750" stroke="#E3E2DF" stroke-linejoin="round"/>
<path d="M178.712 30.108C178.712 30.2558 178.778 30.396 178.891 30.491L186.551 36.9189C186.7 37.0438 186.908 37.0712 187.084 36.989C187.26 36.9069 187.373 36.7302 187.373 36.5359V32.2039C187.373 32.0561 187.307 31.9159 187.194 31.8209L179.534 25.393C179.385 25.2681 179.177 25.2407 179.001 25.3228C178.825 25.405 178.712 25.5817 178.712 25.776V30.108Z" fill="#9A1750" stroke="#E3E2DF" stroke-linejoin="round"/>
<path d="M181.602 21.8176C181.389 21.6427 181.075 21.6724 180.9 21.8841C180.724 22.0958 180.752 22.4098 180.963 22.5867L188.623 29.0146L188.623 29.0146L188.627 29.0176L190.202 30.3139C190.414 30.4887 190.728 30.459 190.904 30.2473C191.08 30.0357 191.052 29.7216 190.841 29.5447L183.181 23.1169L183.181 23.1169L183.177 23.1138L181.602 21.8176Z" fill="#9A1750" stroke="#E3E2DF" stroke-linejoin="round"/>
<path d="M179.534 25.393L179.534 25.393L179.532 25.3919L177.622 23.7996L177.62 23.7985C177.408 23.6219 177.094 23.6503 176.917 23.8619C176.74 24.0735 176.768 24.3884 176.979 24.5656L176.98 24.5667L184.639 30.9935L184.641 30.9946L186.551 32.5869L186.553 32.588C186.765 32.7646 187.079 32.7362 187.256 32.5246C187.433 32.313 187.405 31.9981 187.194 31.8209L187.193 31.8198L179.534 25.393Z" fill="#9A1750" stroke="#E3E2DF" stroke-linejoin="round"/>
<path d="M155.442 53.969C155.433 53.9617 155.424 53.9547 155.415 53.948L152.199 51.6038C151.981 51.445 151.677 51.4874 151.511 51.6997C151.345 51.9119 151.377 52.2176 151.583 52.3908L159.244 58.8187C159.252 58.826 159.261 58.833 159.27 58.8397L162.486 61.1839C162.704 61.3427 163.008 61.3003 163.174 61.088C163.341 60.8758 163.309 60.5701 163.102 60.3969L155.442 53.969Z" fill="#9A1750" stroke="#E3E2DF" stroke-linejoin="round"/>
<path d="M178.37 19.1583C178.158 18.9834 177.844 19.0131 177.668 19.2248C177.492 19.4364 177.52 19.7505 177.731 19.9274L185.392 26.3552L185.392 26.3553L185.395 26.3583L188.627 29.0176C188.839 29.1925 189.153 29.1628 189.329 28.9511C189.505 28.7394 189.477 28.4254 189.266 28.2485L181.605 21.8206L181.605 21.8206L181.602 21.8176L178.37 19.1583Z" fill="#9A1750" stroke="#E3E2DF" stroke-linejoin="round"/>
<path d="M139.677 70.689C139.587 70.6134 139.473 70.572 139.356 70.572H135.404C135.193 70.572 135.006 70.7035 134.934 70.901C134.862 71.0985 134.921 71.3199 135.082 71.455L142.743 77.8829C142.833 77.9585 142.947 77.9999 143.064 77.9999H147.016C147.226 77.9999 147.414 77.8684 147.486 77.6709C147.558 77.4734 147.498 77.252 147.337 77.1169L139.677 70.689Z" fill="#9A1750" stroke="#E3E2DF" stroke-linejoin="round"/>
<path d="M177.622 23.7996L177.622 23.7996L177.62 23.7985L176.884 23.1853C176.673 23.0087 176.358 23.0371 176.181 23.2486C176.004 23.4602 176.032 23.7751 176.243 23.9524L176.244 23.9535L183.903 30.3803L183.905 30.3814L184.639 30.9935L184.641 30.9946C184.852 31.1712 185.167 31.1428 185.344 30.9312C185.521 30.7196 185.493 30.4048 185.282 30.2275L185.281 30.2264L177.622 23.7996Z" fill="#9A1750" stroke="#E3E2DF" stroke-linejoin="round"/>
<path d="M154.506 48.2428C154.29 48.0797 153.983 48.1187 153.814 48.3309C153.645 48.543 153.676 48.8509 153.884 49.0251L161.544 55.453C161.551 55.4586 161.558 55.4641 161.565 55.4693L163.696 57.0752C163.912 57.2383 164.219 57.1993 164.388 56.9871C164.557 56.775 164.526 56.4671 164.318 56.2929L156.658 49.865C156.651 49.8594 156.644 49.8539 156.637 49.8487L154.506 48.2428Z" fill="#9A1750" stroke="#E3E2DF" stroke-linejoin="round"/>
<path d="M176.886 23.1864L176.886 23.1864L176.884 23.1853L174.974 21.593L174.972 21.5919C174.76 21.4153 174.446 21.4437 174.269 21.6553C174.092 21.8668 174.12 22.1817 174.331 22.359L174.332 22.3601L181.991 28.7869L181.993 28.788L183.903 30.3803L183.905 30.3814C184.117 30.5579 184.431 30.5296 184.608 30.318C184.785 30.1064 184.757 29.7915 184.546 29.6142L184.545 29.6132L176.886 23.1864Z" fill="#9A1750" stroke="#E3E2DF" stroke-linejoin="round"/>
<path d="M153.524 47.5026C153.308 47.3395 153.001 47.3785 152.832 47.5906C152.663 47.8027 152.694 48.1107 152.902 48.2849L160.562 54.7128C160.569 54.7184 160.576 54.7238 160.583 54.7291L161.565 55.4693C161.781 55.6324 162.088 55.5934 162.257 55.3813C162.426 55.1691 162.395 54.8612 162.187 54.687L154.527 48.2591C154.52 48.2535 154.513 48.2481 154.506 48.2428L153.524 47.5026Z" fill="#9A1750" stroke="#E3E2DF" stroke-linejoin="round"/>
<path d="M152.226 51.6248C152.217 51.6175 152.208 51.6105 152.199 51.6038L150.499 50.3642C150.281 50.2054 149.976 50.2478 149.81 50.4601C149.644 50.6723 149.676 50.978 149.883 51.1512L157.543 57.5791C157.552 57.5864 157.561 57.5934 157.57 57.6001L159.27 58.8397C159.488 58.9985 159.793 58.9561 159.959 58.7438C160.125 58.5316 160.093 58.2259 159.886 58.0527L152.226 51.6248Z" fill="#9A1750" stroke="#E3E2DF" stroke-linejoin="round"/>
<path d="M176.795 17.862C176.583 17.6872 176.269 17.7169 176.093 17.9286C175.917 18.1402 175.945 18.4542 176.156 18.6311L183.816 25.059L183.816 25.059L183.82 25.0621L185.395 26.3583C185.608 26.5332 185.922 26.5034 186.098 26.2918C186.273 26.0801 186.245 25.7661 186.034 25.5892L178.374 19.1613L178.374 19.1613L178.37 19.1583L176.795 17.862Z" fill="#9A1750" stroke="#E3E2DF" stroke-linejoin="round"/>
<path d="M151.393 45.8967C151.177 45.7336 150.87 45.7726 150.701 45.9847C150.532 46.1969 150.563 46.5048 150.771 46.679L158.431 53.1069C158.438 53.1125 158.445 53.1179 158.452 53.1232L160.583 54.7291C160.799 54.8922 161.106 54.8531 161.275 54.641C161.444 54.4289 161.413 54.121 161.205 53.9467L153.545 47.5189C153.538 47.5133 153.531 47.5078 153.524 47.5026L151.393 45.8967Z" fill="#9A1750" stroke="#E3E2DF" stroke-linejoin="round"/>
<path d="M176.338 17.4859C176.125 17.311 175.812 17.3408 175.636 17.5524C175.46 17.7641 175.488 18.0781 175.699 18.255L183.359 24.6829L183.359 24.6829L183.363 24.686L183.82 25.0621C184.033 25.2369 184.346 25.2072 184.522 24.9955C184.698 24.7839 184.67 24.4699 184.459 24.293L176.799 17.8651L176.799 17.8651L176.795 17.862L176.338 17.4859Z" fill="#9A1750" stroke="#E3E2DF" stroke-linejoin="round"/>
<path d="M150.525 50.3852C150.517 50.3779 150.508 50.3709 150.499 50.3642L147.283 48.02C147.065 47.8612 146.761 47.9036 146.595 48.1159C146.428 48.3281 146.46 48.6338 146.667 48.807L154.327 55.2349C154.336 55.2422 154.345 55.2492 154.354 55.2559L157.57 57.6001C157.788 57.7589 158.092 57.7165 158.258 57.5042C158.424 57.292 158.392 56.9863 158.186 56.8131L150.525 50.3852Z" fill="#9A1750" stroke="#E3E2DF" stroke-linejoin="round"/>
<path d="M134.904 71.072C134.904 71.2198 134.969 71.36 135.082 71.455L142.743 77.8829C142.892 78.0078 143.099 78.0352 143.275 77.953C143.451 77.8709 143.564 77.6942 143.564 77.4999V57.2839C143.564 57.1361 143.499 56.9959 143.385 56.9009L135.725 50.473C135.576 50.3481 135.368 50.3207 135.192 50.4028C135.016 50.485 134.904 50.6617 134.904 50.856V71.072Z" fill="#9A1750" stroke="#E3E2DF" stroke-linejoin="round"/>
<path d="M174.974 21.593C174.884 21.5174 174.77 21.476 174.652 21.476H156.336C156.126 21.476 155.938 21.6075 155.866 21.805C155.795 22.0025 155.854 22.2239 156.015 22.359L163.675 28.7869C163.765 28.8625 163.879 28.9039 163.997 28.9039H182.313C182.523 28.9039 182.711 28.7724 182.783 28.5749C182.854 28.3774 182.795 28.156 182.634 28.0209L174.974 21.593Z" fill="#9A1750" stroke="#E3E2DF" stroke-linejoin="round"/>
<path d="M151.414 25.545C151.265 25.4201 151.057 25.3927 150.881 25.4749C150.705 25.557 150.592 25.7337 150.592 25.928V46.296C150.592 46.4438 150.658 46.584 150.771 46.679L158.431 53.1069C158.58 53.2318 158.788 53.2592 158.964 53.177C159.14 53.0949 159.253 52.9182 159.253 52.7239V32.3559C159.253 32.2081 159.187 32.0679 159.074 31.9729L151.414 25.545Z" fill="#9A1750" stroke="#E3E2DF" stroke-linejoin="round"/>
<path d="M155.12 17.372C154.91 17.372 154.722 17.5035 154.65 17.701C154.579 17.8985 154.638 18.1199 154.799 18.255L162.459 24.6829C162.549 24.7585 162.663 24.7999 162.781 24.7999H183.681C183.891 24.7999 184.079 24.6684 184.151 24.4709C184.222 24.2734 184.163 24.052 184.002 23.9169L176.342 17.489C176.252 17.4134 176.138 17.372 176.02 17.372H155.12Z" fill="#9A1750" stroke="#E3E2DF" stroke-linejoin="round"/>
<path d="M146.488 48.424C146.488 48.5718 146.554 48.712 146.667 48.807L154.327 55.2349C154.476 55.3598 154.684 55.3872 154.86 55.305C155.036 55.2229 155.149 55.0462 155.149 54.8519V30.2279C155.149 30.0801 155.083 29.9399 154.97 29.8449L147.31 23.417C147.161 23.2921 146.953 23.2647 146.777 23.3468C146.601 23.429 146.488 23.6057 146.488 23.8V48.424Z" fill="#9A1750" stroke="#E3E2DF" stroke-linejoin="round"/>
<path d="M135.725 50.473C135.549 50.3249 135.294 50.3166 135.108 50.4528L130.548 53.7968C130.424 53.8876 130.349 54.0302 130.344 54.1837C130.339 54.3371 130.405 54.4843 130.522 54.583L138.183 61.0109C138.359 61.159 138.614 61.1673 138.8 61.0311L143.36 57.6871C143.484 57.5963 143.559 57.4537 143.564 57.3002C143.569 57.1468 143.503 56.9995 143.385 56.9009L135.725 50.473Z" fill="#9A1750" stroke="#E3E2DF" stroke-linejoin="round"/>
<path d="M139.677 17.565C139.528 17.4401 139.32 17.4127 139.144 17.4948C138.968 17.577 138.856 17.7537 138.856 17.948V71.072C138.856 71.2198 138.921 71.36 139.034 71.455L146.695 77.8829C146.844 78.0078 147.051 78.0352 147.227 77.953C147.403 77.8709 147.516 77.6942 147.516 77.4999V24.3759C147.516 24.2281 147.451 24.0879 147.337 23.9929L139.677 17.565Z" fill="#9A1750" stroke="#E3E2DF" stroke-linejoin="round"/>
<path d="M156.658 21.593C156.479 21.4433 156.221 21.4366 156.035 21.5767L150.791 25.5287C150.67 25.6204 150.596 25.7626 150.592 25.9149C150.588 26.0672 150.654 26.2131 150.771 26.311L158.431 32.7389C158.61 32.8886 158.868 32.8953 159.054 32.7552L164.298 28.8032C164.419 28.7115 164.493 28.5693 164.497 28.417C164.501 28.2646 164.435 28.1188 164.318 28.0209L156.658 21.593Z" fill="#9A1750" stroke="#E3E2DF" stroke-linejoin="round"/>
<path d="M129.793 49.6891C129.667 49.779 129.59 49.922 129.584 50.0765C129.578 50.231 129.644 50.3796 129.762 50.479L137.423 56.9069C137.597 57.0535 137.849 57.0633 138.035 56.9307L143.355 53.1307C143.48 53.0409 143.558 52.8979 143.564 52.7433C143.57 52.5888 143.504 52.4402 143.385 52.3409L135.725 45.913C135.55 45.7664 135.299 45.7566 135.113 45.8891L129.793 49.6891Z" fill="#9A1750" stroke="#E3E2DF" stroke-linejoin="round"/>
<path d="M146.694 23.396C146.569 23.4865 146.494 23.6293 146.489 23.7829C146.483 23.9366 146.549 24.0842 146.667 24.183L154.327 30.6109C154.503 30.7586 154.758 30.7673 154.943 30.6319L163.075 24.7039C163.2 24.6133 163.275 24.4706 163.28 24.3169C163.286 24.1632 163.22 24.0157 163.102 23.9169L155.442 17.489C155.266 17.3412 155.011 17.3326 154.826 17.468L146.694 23.396Z" fill="#9A1750" stroke="#E3E2DF" stroke-linejoin="round"/>
<path d="M134.904 46.296C134.904 46.4438 134.969 46.584 135.082 46.679L142.743 53.1069C142.892 53.2318 143.099 53.2592 143.275 53.177C143.451 53.0949 143.564 52.9182 143.564 52.7239V34.2559C143.564 34.1081 143.499 33.9679 143.385 33.8729L135.725 27.445C135.576 27.3201 135.368 27.2927 135.192 27.3748C135.016 27.457 134.904 27.6337 134.904 27.828V46.296Z" fill="#9A1750" stroke="#E3E2DF" stroke-linejoin="round"/>
<path d="M131.165 53.817C131.075 53.7414 130.961 53.7 130.844 53.7H110.476C110.265 53.7 110.078 53.8315 110.006 54.029C109.934 54.2265 109.993 54.4479 110.154 54.583L117.815 61.0109C117.905 61.0865 118.019 61.1279 118.136 61.1279H138.504C138.714 61.1279 138.902 60.9964 138.974 60.7989C139.046 60.6014 138.986 60.38 138.825 60.2449L131.165 53.817Z" fill="#9A1750" stroke="#E3E2DF" stroke-linejoin="round"/>
<path d="M111.996 49.596C111.785 49.596 111.598 49.7275 111.526 49.925C111.454 50.1225 111.513 50.3439 111.674 50.479L119.335 56.9069C119.425 56.9825 119.539 57.0239 119.656 57.0239H137.744C137.954 57.0239 138.142 56.8924 138.214 56.6949C138.286 56.4974 138.226 56.276 138.065 56.1409L130.405 49.713C130.315 49.6374 130.201 49.596 130.084 49.596H111.996Z" fill="#9A1750" stroke="#E3E2DF" stroke-linejoin="round"/>
<path d="M135.057 28.1882C135.065 28.1961 135.074 28.2037 135.082 28.211L142.743 34.6389C142.949 34.8121 143.256 34.7906 143.436 34.5902C143.616 34.3898 143.605 34.0826 143.411 33.8957L140.99 31.5643C140.982 31.5564 140.973 31.5487 140.964 31.5414L133.304 25.1135C133.097 24.9403 132.791 24.9619 132.611 25.1623C132.431 25.3627 132.442 25.6698 132.636 25.8567L135.057 28.1882Z" fill="#9A1750" stroke="#E3E2DF" stroke-linejoin="round"/>
<path d="M110.797 53.817L110.797 53.817L110.793 53.8136L110.237 53.3571C110.024 53.1825 109.711 53.2125 109.535 53.4242C109.359 53.6358 109.387 53.9497 109.598 54.1265L117.259 60.5544L117.259 60.5544L117.263 60.5578L117.819 61.0143C118.031 61.1889 118.345 61.1589 118.521 60.9472C118.696 60.7355 118.668 60.4217 118.457 60.2449L110.797 53.817Z" fill="#9A1750" stroke="#E3E2DF" stroke-linejoin="round"/>
<path d="M110.241 53.3605L110.241 53.3605L110.237 53.3571L108.954 52.3034C108.741 52.1288 108.427 52.1588 108.252 52.3705C108.076 52.5822 108.104 52.896 108.315 53.0729L115.975 59.5007L115.975 59.5008L115.979 59.5041L117.263 60.5578C117.475 60.7324 117.789 60.7024 117.965 60.4907C118.141 60.279 118.112 59.9652 117.901 59.7884L110.241 53.3605Z" fill="#9A1750" stroke="#E3E2DF" stroke-linejoin="round"/>
<path d="M132.636 25.8567C132.644 25.8646 132.652 25.8723 132.661 25.8796L140.322 32.3075C140.528 32.4807 140.835 32.4591 141.015 32.2587C141.195 32.0583 141.184 31.7512 140.99 31.5643L139.676 30.2992C139.668 30.2913 139.659 30.2836 139.651 30.2763L131.99 23.8484C131.784 23.6752 131.477 23.6967 131.297 23.8971C131.117 24.0975 131.128 24.4047 131.322 24.5916L132.636 25.8567Z" fill="#9A1750" stroke="#E3E2DF" stroke-linejoin="round"/>
<path d="M133.956 20.49C133.748 20.3155 133.439 20.3388 133.259 20.5425C133.08 20.7462 133.096 21.0559 133.295 21.2402L135.064 22.8752C135.07 22.8806 135.076 22.8859 135.082 22.891L142.743 29.3189C142.951 29.4934 143.26 29.4701 143.439 29.2664C143.619 29.0626 143.603 28.753 143.403 28.5687L141.634 26.9337C141.629 26.9283 141.623 26.923 141.616 26.9179L133.956 20.49Z" fill="#9A1750" stroke="#E3E2DF" stroke-linejoin="round"/>
<path d="M135.404 17.448C135.193 17.448 135.006 17.5795 134.934 17.777C134.862 17.9745 134.921 18.1959 135.082 18.331L142.743 24.7589C142.833 24.8345 142.947 24.8759 143.064 24.8759H147.016C147.226 24.8759 147.414 24.7444 147.486 24.5469C147.558 24.3494 147.498 24.128 147.337 23.9929L139.677 17.565C139.587 17.4894 139.473 17.448 139.356 17.448H135.404Z" fill="#9A1750" stroke="#E3E2DF" stroke-linejoin="round"/>
<path d="M110.382 48.1773C110.168 48.0073 109.857 48.041 109.684 48.2528C109.511 48.4647 109.541 48.7762 109.75 48.952L117.411 55.3799L117.411 55.38L117.421 55.3885L119.345 56.9155C119.559 57.0855 119.871 57.0519 120.043 56.84C120.216 56.6281 120.187 56.3166 119.977 56.1409L112.317 49.713L112.317 49.7128L112.306 49.7044L110.382 48.1773Z" fill="#9A1750" stroke="#E3E2DF" stroke-linejoin="round"/>
<path d="M134.904 22.508C134.904 22.6558 134.969 22.796 135.082 22.891L142.743 29.3189C142.892 29.4438 143.099 29.4711 143.275 29.389C143.451 29.3069 143.564 29.1302 143.564 28.9359V24.3759C143.564 24.2281 143.499 24.0879 143.385 23.9929L135.725 17.565C135.576 17.4401 135.368 17.4127 135.192 17.4948C135.016 17.577 134.904 17.7537 134.904 17.948V22.508Z" fill="#9A1750" stroke="#E3E2DF" stroke-linejoin="round"/>
<path d="M109.443 47.4314C109.228 47.2614 108.917 47.295 108.744 47.5069C108.571 47.7188 108.601 48.0303 108.81 48.2061L116.471 54.6339L116.471 54.6341L116.481 54.6426L117.421 55.3885C117.635 55.5585 117.946 55.5249 118.119 55.313C118.292 55.1011 118.263 54.7896 118.053 54.6138L110.393 48.1859L110.393 48.1858L110.382 48.1773L109.443 47.4314Z" fill="#9A1750" stroke="#E3E2DF" stroke-linejoin="round"/>
<path d="M108.958 52.3068L108.958 52.3068L108.954 52.3034L105.412 49.3957C105.2 49.2212 104.886 49.2511 104.71 49.4628C104.534 49.6745 104.563 49.9884 104.774 50.1652L112.434 56.5931L112.434 56.5931L112.438 56.5965L115.979 59.5041C116.192 59.6787 116.506 59.6487 116.681 59.4371C116.857 59.2254 116.829 58.9115 116.618 58.7347L108.958 52.3068Z" fill="#9A1750" stroke="#E3E2DF" stroke-linejoin="round"/>
<path d="M132.478 19.124C132.27 18.9495 131.961 18.9728 131.781 19.1765C131.602 19.3802 131.618 19.6899 131.817 19.8742L133.295 21.2402C133.301 21.2456 133.307 21.2509 133.313 21.256L140.974 27.6839C141.182 27.8584 141.491 27.8351 141.67 27.6314C141.85 27.4276 141.834 27.118 141.634 26.9337L140.156 25.5677C140.151 25.5623 140.145 25.557 140.139 25.5519L132.478 19.124Z" fill="#9A1750" stroke="#E3E2DF" stroke-linejoin="round"/>
<path d="M131.322 24.5916C131.33 24.5995 131.339 24.6071 131.347 24.6145L139.008 31.0423C139.214 31.2156 139.521 31.194 139.701 30.9936C139.881 30.7932 139.87 30.4861 139.676 30.2992L137.255 27.9677C137.247 27.9598 137.238 27.9522 137.229 27.9449L129.569 21.517C129.363 21.3438 129.056 21.3653 128.876 21.5657C128.696 21.7661 128.707 22.0732 128.901 22.2602L131.322 24.5916Z" fill="#9A1750" stroke="#E3E2DF" stroke-linejoin="round"/>
<path d="M107.518 45.9044C107.304 45.7343 106.993 45.768 106.82 45.9799C106.647 46.1917 106.677 46.5032 106.886 46.679L114.547 53.1069L114.547 53.107L114.557 53.1155L116.481 54.6426C116.696 54.8126 117.007 54.7789 117.18 54.5671C117.352 54.3552 117.323 54.0437 117.114 53.8679L109.453 47.44L109.453 47.4399L109.443 47.4314L107.518 45.9044Z" fill="#9A1750" stroke="#E3E2DF" stroke-linejoin="round"/>
<path d="M130.709 17.489C130.501 17.3145 130.192 17.3378 130.012 17.5415C129.833 17.7452 129.849 18.0549 130.048 18.2392L131.817 19.8742C131.823 19.8796 131.829 19.8849 131.835 19.89L139.496 26.3179C139.704 26.4924 140.013 26.4691 140.192 26.2654C140.372 26.0616 140.356 25.752 140.156 25.5677L138.387 23.9327C138.382 23.9273 138.376 23.922 138.369 23.9169L130.709 17.489Z" fill="#9A1750" stroke="#E3E2DF" stroke-linejoin="round"/>
<path d="M105.416 49.3992L105.416 49.3991L105.412 49.3957L104.129 48.3421C103.916 48.1675 103.603 48.1975 103.427 48.4092C103.251 48.6208 103.279 48.9347 103.49 49.1115L111.151 55.5394L111.151 55.5394L111.155 55.5428L112.438 56.5965C112.651 56.7711 112.964 56.7411 113.14 56.5294C113.316 56.3177 113.288 56.0039 113.077 55.827L105.416 49.3992Z" fill="#9A1750" stroke="#E3E2DF" stroke-linejoin="round"/>
<path d="M104.133 48.3455L104.133 48.3455L104.129 48.3421L103.573 47.8856C103.36 47.711 103.047 47.741 102.871 47.9527C102.695 48.1643 102.723 48.4782 102.934 48.655L110.595 55.0829L110.595 55.0829L110.599 55.0863L111.155 55.5428C111.367 55.7174 111.681 55.6874 111.857 55.4757C112.032 55.264 112.004 54.9502 111.793 54.7734L104.133 48.3455Z" fill="#9A1750" stroke="#E3E2DF" stroke-linejoin="round"/>
<path d="M129.569 21.517C129.479 21.4414 129.365 21.4 129.248 21.4H111.996C111.785 21.4 111.598 21.5315 111.526 21.729C111.454 21.9265 111.513 22.1479 111.674 22.283L119.335 28.7109C119.425 28.7865 119.539 28.8279 119.656 28.8279H136.908C137.118 28.8279 137.306 28.6964 137.378 28.4989C137.45 28.3014 137.39 28.08 137.229 27.9449L129.569 21.517Z" fill="#9A1750" stroke="#E3E2DF" stroke-linejoin="round"/>
<path d="M107.529 25.393C107.38 25.2681 107.172 25.2407 106.996 25.3228C106.82 25.405 106.708 25.5817 106.708 25.776V46.296C106.708 46.4438 106.773 46.584 106.886 46.679L114.547 53.1069C114.696 53.2318 114.903 53.2592 115.079 53.177C115.255 53.0949 115.368 52.9182 115.368 52.7239V32.2039C115.368 32.0561 115.303 31.9159 115.189 31.8209L107.529 25.393Z" fill="#9A1750" stroke="#E3E2DF" stroke-linejoin="round"/>
<path d="M96.7275 47.889C96.5421 47.7334 96.272 47.733 96.086 47.8879L88.79 53.9679C88.6763 54.0627 88.6104 54.2031 88.6101 54.3512C88.6099 54.4992 88.6753 54.6398 88.7887 54.735L96.4492 61.1629C96.6346 61.3185 96.9047 61.3189 97.0907 61.164L104.387 55.084C104.5 54.9892 104.566 54.8488 104.567 54.7007C104.567 54.5526 104.501 54.412 104.388 54.3169L96.7275 47.889Z" fill="#9A1750" stroke="#E3E2DF" stroke-linejoin="round"/>
<path d="M110.476 17.372C110.265 17.372 110.078 17.5035 110.006 17.701C109.934 17.8985 109.993 18.1199 110.154 18.255L117.815 24.6829C117.905 24.7585 118.019 24.7999 118.136 24.7999H138.048C138.258 24.7999 138.446 24.6684 138.518 24.4709C138.59 24.2734 138.53 24.052 138.369 23.9169L130.709 17.489C130.619 17.4134 130.505 17.372 130.388 17.372H110.476Z" fill="#9A1750" stroke="#E3E2DF" stroke-linejoin="round"/>
<path d="M96.7275 41.733C96.5787 41.6081 96.3709 41.5807 96.1948 41.6628C96.0187 41.745 95.9061 41.9217 95.9061 42.116V48.272C95.9061 48.4198 95.9715 48.56 96.0847 48.655L103.745 55.0829C103.894 55.2078 104.102 55.2352 104.278 55.153C104.454 55.0709 104.567 54.8942 104.567 54.6999V48.5439C104.567 48.3961 104.501 48.2559 104.388 48.1609L96.7275 41.733Z" fill="#9A1750" stroke="#E3E2DF" stroke-linejoin="round"/>
<path d="M102.756 48.272C102.756 48.4198 102.821 48.56 102.934 48.655L110.595 55.0829C110.744 55.2078 110.951 55.2352 111.127 55.153C111.303 55.0709 111.416 54.8942 111.416 54.6999V30.2279C111.416 30.0801 111.351 29.9399 111.237 29.8449L103.577 23.417C103.428 23.2921 103.22 23.2647 103.044 23.3468C102.868 23.429 102.756 23.6057 102.756 23.8V48.272Z" fill="#9A1750" stroke="#E3E2DF" stroke-linejoin="round"/>
<path d="M87.4183 49.867C87.3061 49.9624 87.2416 50.1024 87.2421 50.2496C87.2426 50.3968 87.3079 50.5364 87.4207 50.631L95.0812 57.0589C95.268 57.2156 95.5406 57.2148 95.7264 57.0569L100.286 53.1808C100.399 53.0855 100.463 52.9455 100.463 52.7983C100.462 52.651 100.397 52.5115 100.284 52.4169L92.6235 45.989C92.4367 45.8322 92.1641 45.8331 91.9783 45.991L87.4183 49.867Z" fill="#9A1750" stroke="#E3E2DF" stroke-linejoin="round"/>
<path d="M92.3021 41.616C92.0919 41.616 91.9042 41.7475 91.8323 41.945C91.7604 42.1425 91.8197 42.3639 91.9807 42.499L99.6412 48.9269C99.7312 49.0025 99.845 49.0439 99.9626 49.0439H104.067C104.277 49.0439 104.465 48.9124 104.536 48.7149C104.608 48.5174 104.549 48.296 104.388 48.1609L96.7275 41.733C96.6375 41.6574 96.5237 41.616 96.4061 41.616H92.3021Z" fill="#9A1750" stroke="#E3E2DF" stroke-linejoin="round"/>
<path d="M112.317 21.517C112.134 21.3631 111.867 21.3608 111.681 21.5114L106.893 25.3874C106.777 25.4813 106.709 25.6223 106.708 25.7716C106.706 25.9209 106.772 26.063 106.886 26.159L114.547 32.5869C114.73 32.7407 114.997 32.7431 115.183 32.5925L119.971 28.7165C120.087 28.6225 120.155 28.4816 120.156 28.3323C120.157 28.1829 120.092 28.0408 119.977 27.9449L112.317 21.517Z" fill="#9A1750" stroke="#E3E2DF" stroke-linejoin="round"/>
<path d="M91.8021 46.372C91.8021 46.5198 91.8675 46.66 91.9807 46.755L99.6412 53.1829C99.79 53.3078 99.9978 53.3352 100.174 53.253C100.35 53.1709 100.463 52.9942 100.463 52.7999V48.5439C100.463 48.3961 100.397 48.2559 100.284 48.1609L92.6235 41.733C92.4746 41.6081 92.2669 41.5807 92.0908 41.6628C91.9147 41.745 91.8021 41.9217 91.8021 42.116V46.372Z" fill="#9A1750" stroke="#E3E2DF" stroke-linejoin="round"/>
<path d="M102.938 23.4136C102.823 23.5079 102.756 23.6486 102.756 23.7973C102.755 23.9461 102.82 24.0874 102.934 24.183L110.595 30.6109C110.779 30.7656 111.047 30.767 111.233 30.6143L118.453 24.6863C118.568 24.5919 118.635 24.4513 118.636 24.3025C118.637 24.1538 118.571 24.0125 118.457 23.9169L110.797 17.489C110.613 17.3343 110.344 17.3329 110.158 17.4856L102.938 23.4136Z" fill="#9A1750" stroke="#E3E2DF" stroke-linejoin="round"/>
<path d="M89.4315 53.969C89.3415 53.8934 89.2277 53.852 89.1101 53.852H68.2101C67.9999 53.852 67.8122 53.9835 67.7403 54.181C67.6684 54.3785 67.7277 54.5999 67.8887 54.735L75.5492 61.1629C75.6392 61.2385 75.753 61.2799 75.8706 61.2799H96.7706C96.9808 61.2799 97.1685 61.1484 97.2404 60.9509C97.3123 60.7534 97.253 60.532 97.092 60.3969L89.4315 53.969Z" fill="#9A1750" stroke="#E3E2DF" stroke-linejoin="round"/>
<path d="M69.4261 49.748C69.2159 49.748 69.0282 49.8795 68.9563 50.077C68.8844 50.2745 68.9437 50.4959 69.1047 50.631L76.7652 57.0589C76.8552 57.1345 76.969 57.1759 77.0866 57.1759H95.4026C95.6128 57.1759 95.8005 57.0444 95.8724 56.8469C95.9443 56.6494 95.885 56.428 95.724 56.2929L88.0635 49.865C87.9735 49.7894 87.8597 49.748 87.7421 49.748H69.4261Z" fill="#9A1750" stroke="#E3E2DF" stroke-linejoin="round"/>
<path d="M96.7275 29.725C96.6375 29.6494 96.5237 29.608 96.4061 29.608H92.3021C92.0919 29.608 91.9042 29.7395 91.8323 29.937C91.7604 30.1345 91.8197 30.3559 91.9807 30.491L99.6412 36.9189C99.7312 36.9945 99.845 37.0359 99.9626 37.0359H104.067C104.277 37.0359 104.465 36.9044 104.536 36.7069C104.608 36.5094 104.549 36.288 104.388 36.1529L96.7275 29.725Z" fill="#9A1750" stroke="#E3E2DF" stroke-linejoin="round"/>
<path d="M96.7275 23.493C96.5787 23.3681 96.3709 23.3407 96.1948 23.4228C96.0187 23.505 95.9061 23.6817 95.9061 23.876V30.108C95.9061 30.2558 95.9715 30.396 96.0847 30.491L103.745 36.9189C103.894 37.0438 104.102 37.0712 104.278 36.989C104.454 36.9069 104.567 36.7302 104.567 36.5359V30.3039C104.567 30.1561 104.501 30.0159 104.388 29.9209L96.7275 23.493Z" fill="#9A1750" stroke="#E3E2DF" stroke-linejoin="round"/>
<path d="M96.2668 23.1138C96.0543 22.9389 95.7404 22.9687 95.5645 23.1803C95.3886 23.392 95.4169 23.706 95.6277 23.8829L103.288 30.3108L103.288 30.3108L103.292 30.3138L103.749 30.69C103.961 30.8648 104.275 30.8351 104.451 30.6234C104.627 30.4118 104.599 30.0978 104.388 29.9209L96.7275 23.493L96.7275 23.493L96.7238 23.4899L96.2668 23.1138Z" fill="#9A1750" stroke="#E3E2DF" stroke-linejoin="round"/>
<path d="M91.8021 30.108C91.8021 30.2558 91.8675 30.396 91.9807 30.491L99.6412 36.9189C99.79 37.0438 99.9978 37.0712 100.174 36.989C100.35 36.9069 100.463 36.7302 100.463 36.5359V32.2039C100.463 32.0561 100.397 31.9159 100.284 31.8209L92.6235 25.393C92.4746 25.2681 92.2669 25.2407 92.0908 25.3228C91.9147 25.405 91.8021 25.5817 91.8021 25.776V30.108Z" fill="#9A1750" stroke="#E3E2DF" stroke-linejoin="round"/>
<path d="M94.6916 21.8176C94.4791 21.6427 94.1652 21.6724 93.9894 21.8841C93.8135 22.0958 93.8417 22.4098 94.0525 22.5867L101.713 29.0146L101.713 29.0146L101.717 29.0176L103.292 30.3139C103.504 30.4887 103.818 30.459 103.994 30.2473C104.17 30.0357 104.142 29.7216 103.931 29.5447L96.2705 23.1169L96.2705 23.1169L96.2668 23.1138L94.6916 21.8176Z" fill="#9A1750" stroke="#E3E2DF" stroke-linejoin="round"/>
<path d="M92.6235 25.393L92.6235 25.393L92.6222 25.3919L90.7115 23.7996L90.7102 23.7985C90.4983 23.6219 90.1834 23.6503 90.0065 23.8619C89.8296 24.0735 89.8574 24.3884 90.0687 24.5656L90.07 24.5667L97.7291 30.9935L97.7304 30.9946L99.6412 32.5869L99.6425 32.588C99.8544 32.7646 100.169 32.7362 100.346 32.5246C100.523 32.313 100.495 31.9981 100.284 31.8209L100.283 31.8198L92.6235 25.393Z" fill="#9A1750" stroke="#E3E2DF" stroke-linejoin="round"/>
<path d="M68.5315 53.969C68.5228 53.9617 68.5139 53.9547 68.5047 53.948L65.2889 51.6038C65.0711 51.445 64.7667 51.4874 64.6006 51.6997C64.4345 51.9119 64.4665 52.2176 64.673 52.3908L72.3334 58.8187C72.3421 58.826 72.3511 58.833 72.3603 58.8397L75.576 61.1839C75.7938 61.3427 76.0982 61.3003 76.2643 61.088C76.4304 60.8758 76.3984 60.5701 76.192 60.3969L68.5315 53.969Z" fill="#9A1750" stroke="#E3E2DF" stroke-linejoin="round"/>
<path d="M91.46 19.1583C91.2475 18.9834 90.9337 19.0131 90.7578 19.2248C90.5819 19.4364 90.6101 19.7505 90.8209 19.9274L98.4814 26.3552L98.4814 26.3553L98.4851 26.3583L101.717 29.0176C101.929 29.1925 102.243 29.1628 102.419 28.9511C102.595 28.7394 102.567 28.4254 102.356 28.2485L94.6953 21.8206L94.6953 21.8206L94.6916 21.8176L91.46 19.1583Z" fill="#9A1750" stroke="#E3E2DF" stroke-linejoin="round"/>
<path d="M90.7115 23.7996L90.7115 23.7996L90.7102 23.7985L89.9743 23.1853C89.7624 23.0087 89.4476 23.0371 89.2706 23.2486C89.0937 23.4602 89.1215 23.7751 89.3328 23.9524L89.3341 23.9535L96.9932 30.3803L96.9945 30.3814L97.7291 30.9935L97.7304 30.9946C97.9423 31.1712 98.2571 31.1428 98.4341 30.9312C98.611 30.7196 98.5832 30.4048 98.3719 30.2275L98.3706 30.2264L90.7115 23.7996Z" fill="#9A1750" stroke="#E3E2DF" stroke-linejoin="round"/>
<path d="M67.5962 48.2428C67.3797 48.0797 67.0727 48.1188 66.904 48.3309C66.7352 48.543 66.7662 48.8509 66.9739 49.0252L74.6343 55.453C74.641 55.4586 74.6478 55.4641 74.6548 55.4693L76.7857 57.0752C77.0021 57.2383 77.3091 57.1993 77.4779 56.9871C77.6466 56.775 77.6156 56.4671 77.408 56.2929L69.7475 49.865C69.7408 49.8594 69.734 49.8539 69.7271 49.8487L67.5962 48.2428Z" fill="#9A1750" stroke="#E3E2DF" stroke-linejoin="round"/>
<path d="M89.9756 23.1864L89.9756 23.1864L89.9743 23.1853L88.0635 21.593L88.0622 21.5919C87.8503 21.4153 87.5355 21.4437 87.3585 21.6553C87.1816 21.8668 87.2094 22.1817 87.4207 22.359L87.422 22.3601L95.0812 28.7869L95.0825 28.788L96.9932 30.3803L96.9945 30.3814C97.2064 30.5579 97.5213 30.5296 97.6982 30.318C97.8751 30.1064 97.8473 29.7915 97.636 29.6142L97.6347 29.6132L89.9756 23.1864Z" fill="#9A1750" stroke="#E3E2DF" stroke-linejoin="round"/>
<path d="M66.6139 47.5026C66.3974 47.3394 66.0904 47.3785 65.9217 47.5906C65.7529 47.8027 65.7839 48.1107 65.9916 48.2849L73.652 54.7128C73.6587 54.7184 73.6655 54.7238 73.6725 54.729L74.6548 55.4693C74.8712 55.6325 75.1783 55.5934 75.347 55.3813C75.5157 55.1692 75.4847 54.8612 75.2771 54.687L67.6167 48.2591C67.61 48.2535 67.6031 48.2481 67.5962 48.2428L66.6139 47.5026Z" fill="#9A1750" stroke="#E3E2DF" stroke-linejoin="round"/>
<path d="M65.3158 51.6248C65.3071 51.6175 65.2981 51.6105 65.2889 51.6038L63.5884 50.3642C63.3707 50.2054 63.0662 50.2478 62.9001 50.4601C62.734 50.6723 62.7661 50.978 62.9725 51.1512L70.6329 57.5791C70.6417 57.5864 70.6506 57.5934 70.6598 57.6001L72.3603 58.8397C72.5781 58.9985 72.8825 58.9561 73.0486 58.7438C73.2147 58.5316 73.1827 58.2259 72.9762 58.0527L65.3158 51.6248Z" fill="#9A1750" stroke="#E3E2DF" stroke-linejoin="round"/>
<path d="M89.8849 17.862C89.6724 17.6872 89.3585 17.7169 89.1826 17.9286C89.0067 18.1402 89.0349 18.4542 89.2458 18.6311L96.9062 25.059L96.9062 25.059L96.9099 25.0621L98.4851 26.3583C98.6976 26.5332 99.0114 26.5034 99.1873 26.2918C99.3632 26.0801 99.335 25.7661 99.1242 25.5892L91.4637 19.1613L91.4637 19.1613L91.46 19.1583L89.8849 17.862Z" fill="#9A1750" stroke="#E3E2DF" stroke-linejoin="round"/>
<path d="M64.4831 45.8967C64.2666 45.7336 63.9596 45.7726 63.7908 45.9847C63.6221 46.1969 63.6531 46.5048 63.8607 46.679L71.5212 53.1069C71.5279 53.1125 71.5347 53.1179 71.5416 53.1232L73.6725 54.729C73.889 54.8922 74.196 54.8531 74.3647 54.641C74.5335 54.4289 74.5025 54.1209 74.2948 53.9467L66.6344 47.5188C66.6277 47.5132 66.6209 47.5078 66.6139 47.5026L64.4831 45.8967Z" fill="#9A1750" stroke="#E3E2DF" stroke-linejoin="round"/>
<path d="M89.4278 17.4859C89.2153 17.311 88.9015 17.3408 88.7256 17.5524C88.5497 17.7641 88.5779 18.0781 88.7887 18.255L96.4492 24.6829L96.4492 24.6829L96.4529 24.686L96.9099 25.0621C97.1224 25.2369 97.4363 25.2072 97.6122 24.9955C97.7881 24.7839 97.7598 24.4699 97.549 24.293L89.8886 17.8651L89.8886 17.8651L89.8849 17.862L89.4278 17.4859Z" fill="#9A1750" stroke="#E3E2DF" stroke-linejoin="round"/>
<path d="M63.6153 50.3852C63.6066 50.3779 63.5976 50.3709 63.5884 50.3642L60.3727 48.02C60.1549 47.8612 59.8505 47.9036 59.6844 48.1159C59.5183 48.3281 59.5503 48.6338 59.7567 48.807L67.4172 55.2349C67.4259 55.2422 67.4348 55.2492 67.444 55.2559L70.6598 57.6001C70.8776 57.7589 71.182 57.7165 71.3481 57.5042C71.5142 57.292 71.4822 56.9863 71.2757 56.8131L63.6153 50.3852Z" fill="#9A1750" stroke="#E3E2DF" stroke-linejoin="round"/>
<path d="M88.0635 21.593C87.9735 21.5174 87.8597 21.476 87.7421 21.476H69.4261C69.2159 21.476 69.0282 21.6075 68.9563 21.805C68.8844 22.0025 68.9437 22.2239 69.1047 22.359L76.7652 28.7869C76.8552 28.8625 76.969 28.9039 77.0866 28.9039H95.4026C95.6128 28.9039 95.8005 28.7724 95.8724 28.5749C95.9443 28.3774 95.885 28.156 95.724 28.0209L88.0635 21.593Z" fill="#9A1750" stroke="#E3E2DF" stroke-linejoin="round"/>
<path d="M52.6956 53.817C52.6056 53.7414 52.4918 53.7 52.3742 53.7H48.5742C48.364 53.7 48.1763 53.8315 48.1044 54.029C48.0325 54.2265 48.0918 54.4479 48.2528 54.583L55.9133 61.0109C56.0033 61.0865 56.1171 61.1279 56.2347 61.1279H60.0347C60.2449 61.1279 60.4326 60.9964 60.5045 60.7989C60.5764 60.6014 60.5171 60.38 60.3561 60.2449L52.6956 53.817Z" fill="#9A1750" stroke="#E3E2DF" stroke-linejoin="round"/>
<path d="M64.5035 25.545C64.3547 25.4201 64.1469 25.3927 63.9708 25.4749C63.7947 25.557 63.6821 25.7337 63.6821 25.928V46.296C63.6821 46.4438 63.7475 46.584 63.8607 46.679L71.5212 53.1069C71.67 53.2318 71.8778 53.2592 72.0539 53.177C72.23 53.0949 72.3426 52.9182 72.3426 52.7239V32.3559C72.3426 32.2081 72.2772 32.0679 72.164 31.9729L64.5035 25.545Z" fill="#9A1750" stroke="#E3E2DF" stroke-linejoin="round"/>
<path d="M68.2101 17.372C67.9999 17.372 67.8122 17.5035 67.7403 17.701C67.6684 17.8985 67.7277 18.1199 67.8887 18.255L75.5492 24.6829C75.6392 24.7585 75.753 24.7999 75.8706 24.7999H96.7706C96.9808 24.7999 97.1685 24.6684 97.2404 24.4709C97.3123 24.2734 97.253 24.052 97.092 23.9169L89.4315 17.489C89.3415 17.4134 89.2277 17.372 89.1101 17.372H68.2101Z" fill="#9A1750" stroke="#E3E2DF" stroke-linejoin="round"/>
<path d="M59.5781 48.424C59.5781 48.5718 59.6435 48.712 59.7567 48.807L67.4172 55.2349C67.566 55.3598 67.7738 55.3872 67.9499 55.305C68.126 55.2229 68.2386 55.0462 68.2386 54.8519V30.2279C68.2386 30.0801 68.1732 29.9399 68.06 29.8449L60.3995 23.417C60.2507 23.2921 60.0429 23.2647 59.8668 23.3468C59.6907 23.429 59.5781 23.6057 59.5781 23.8V48.424Z" fill="#9A1750" stroke="#E3E2DF" stroke-linejoin="round"/>
<path d="M69.7475 21.593C69.5692 21.4433 69.3111 21.4366 69.1252 21.5767L63.8812 25.5287C63.7595 25.6204 63.6863 25.7626 63.6823 25.9149C63.6783 26.0672 63.744 26.2131 63.8607 26.311L71.5212 32.7389C71.6995 32.8886 71.9576 32.8953 72.1435 32.7552L77.3875 28.8032C77.5092 28.7115 77.5824 28.5693 77.5864 28.417C77.5904 28.2646 77.5247 28.1188 77.408 28.0209L69.7475 21.593Z" fill="#9A1750" stroke="#E3E2DF" stroke-linejoin="round"/>
<path d="M40.8414 53.817C40.7514 53.7414 40.6376 53.7 40.52 53.7H35.96C35.7498 53.7 35.5621 53.8315 35.4902 54.029C35.4183 54.2265 35.4776 54.4479 35.6386 54.583L43.2991 61.0109C43.3891 61.0865 43.5029 61.1279 43.6205 61.1279H48.1805C48.3907 61.1279 48.5784 60.9964 48.6503 60.7989C48.7222 60.6014 48.6629 60.38 48.5018 60.2449L40.8414 53.817Z" fill="#9A1750" stroke="#E3E2DF" stroke-linejoin="round"/>
<path d="M52.6956 17.489C52.5468 17.3641 52.339 17.3367 52.1629 17.4188C51.9868 17.501 51.8742 17.6777 51.8742 17.872V54.2C51.8742 54.3478 51.9396 54.488 52.0528 54.583L59.7133 61.0109C59.8621 61.1358 60.0699 61.1632 60.246 61.081C60.4221 60.9989 60.5347 60.8222 60.5347 60.6279V24.2999C60.5347 24.1521 60.4693 24.0119 60.3561 23.9169L52.6956 17.489Z" fill="#9A1750" stroke="#E3E2DF" stroke-linejoin="round"/>
<path d="M59.7836 23.396C59.6593 23.4865 59.5837 23.6293 59.5784 23.7829C59.5732 23.9366 59.6389 24.0842 59.7567 24.183L67.4172 30.6109C67.5932 30.7586 67.8474 30.7673 68.0331 30.6319L76.1651 24.7039C76.2894 24.6133 76.365 24.4706 76.3703 24.3169C76.3755 24.1632 76.3098 24.0157 76.192 23.9169L68.5315 17.489C68.3554 17.3412 68.1013 17.3326 67.9156 17.468L59.7836 23.396Z" fill="#9A1750" stroke="#E3E2DF" stroke-linejoin="round"/>
<path d="M48.0742 54.2C48.0742 54.3478 48.1396 54.488 48.2528 54.583L55.9133 61.0109C56.0621 61.1358 56.2699 61.1632 56.446 61.081C56.6221 60.9989 56.7347 60.8222 56.7347 60.6279V24.2999C56.7347 24.1521 56.6693 24.0119 56.5561 23.9169L48.8956 17.489C48.7468 17.3641 48.539 17.3367 48.3629 17.4188C48.1868 17.501 48.0742 17.6777 48.0742 17.872V54.2Z" fill="#9A1750" stroke="#E3E2DF" stroke-linejoin="round"/>
<path d="M29.9734 29.269C29.7952 29.1195 29.5374 29.1126 29.3515 29.2524C29.1656 29.3922 29.1006 29.6417 29.1948 29.8544L40.0628 54.4024C40.0937 54.4722 40.1401 54.534 40.1986 54.583L47.859 61.0109C48.0372 61.1604 48.295 61.1673 48.4809 61.0275C48.6669 60.8877 48.7318 60.6382 48.6376 60.4255L37.7696 35.8775C37.7387 35.8077 37.6923 35.7459 37.6338 35.6969L29.9734 29.269Z" fill="#9A1750" stroke="#E3E2DF" stroke-linejoin="round"/>
<path d="M35.5012 54.3989C35.5321 54.4701 35.5791 54.5331 35.6386 54.583L43.299 61.0109C43.4767 61.16 43.7335 61.1673 43.9194 61.0287C44.1052 60.89 44.1714 60.6418 44.0792 60.429L33.4392 35.881C33.4083 35.8098 33.3613 35.7468 33.3018 35.6969L25.6414 29.269C25.4638 29.1199 25.2069 29.1126 25.0211 29.2512C24.8352 29.3898 24.769 29.6381 24.8612 29.8509L35.5012 54.3989Z" fill="#9A1750" stroke="#E3E2DF" stroke-linejoin="round"/>
<path d="M48.5742 17.372C48.364 17.372 48.1763 17.5035 48.1044 17.701C48.0325 17.8985 48.0918 18.1199 48.2528 18.255L55.9133 24.6829C56.0033 24.7585 56.1171 24.7999 56.2347 24.7999H60.0347C60.2449 24.7999 60.4326 24.6684 60.5045 24.4709C60.5764 24.2734 60.5171 24.052 60.3561 23.9169L52.6956 17.489C52.6056 17.4134 52.4918 17.372 52.3742 17.372H48.5742Z" fill="#9A1750" stroke="#E3E2DF" stroke-linejoin="round"/>
<path d="M52.7716 11.941C52.6816 11.8654 52.5678 11.824 52.4502 11.824H48.5742C48.364 11.824 48.1763 11.9555 48.1044 12.153C48.0325 12.3505 48.0918 12.5719 48.2528 12.707L55.9133 19.1349C56.0033 19.2105 56.1171 19.2519 56.2347 19.2519H60.1107C60.3209 19.2519 60.5086 19.1204 60.5805 18.9229C60.6524 18.7254 60.5931 18.504 60.4321 18.3689L52.7716 11.941Z" fill="#9A1750" stroke="#E3E2DF" stroke-linejoin="round"/>
<path d="M52.7716 7.30498C52.6227 7.18008 52.415 7.15273 52.2389 7.23485C52.0628 7.31697 51.9502 7.49369 51.9502 7.688V12.324C51.9502 12.4718 52.0156 12.612 52.1288 12.707L59.7893 19.1349C59.9381 19.2598 60.1459 19.2872 60.322 19.205C60.4981 19.1229 60.6107 18.9462 60.6107 18.7519V14.1159C60.6107 13.9681 60.5453 13.8279 60.432 13.7329L52.7716 7.30498Z" fill="#9A1750" stroke="#E3E2DF" stroke-linejoin="round"/>
<path d="M42.0574 16.881C41.9502 16.7911 41.8103 16.7502 41.6716 16.7682C41.5329 16.7862 41.4081 16.8615 41.3274 16.9758L32.5874 29.3638C32.4376 29.5762 32.4755 29.8679 32.6746 30.035L40.3351 36.4629C40.4422 36.5528 40.5821 36.5937 40.7208 36.5757C40.8595 36.5577 40.9844 36.4824 41.065 36.3681L49.805 23.9801C49.9548 23.7677 49.917 23.4759 49.7178 23.3089L42.0574 16.881Z" fill="#9A1750" stroke="#E3E2DF" stroke-linejoin="round"/>
<path d="M48.0742 12.324C48.0742 12.4718 48.1396 12.612 48.2528 12.707L55.9133 19.1349C56.0621 19.2598 56.2699 19.2872 56.446 19.205C56.6221 19.1229 56.7347 18.9462 56.7347 18.7519V14.1159C56.7347 13.9681 56.6693 13.8279 56.5561 13.7329L48.8956 7.30498C48.7468 7.18008 48.539 7.15273 48.3629 7.23485C48.1868 7.31697 48.0742 7.49369 48.0742 7.688V12.324Z" fill="#9A1750" stroke="#E3E2DF" stroke-linejoin="round"/>
<path d="M48.5742 7.188C48.364 7.188 48.1763 7.31947 48.1044 7.51699C48.0325 7.71452 48.0918 7.93591 48.2528 8.07103L55.9133 14.4989C56.0033 14.5745 56.1171 14.6159 56.2347 14.6159H60.1107C60.3209 14.6159 60.5086 14.4844 60.5805 14.2869C60.6524 14.0894 60.5931 13.868 60.4321 13.7329L52.7716 7.30498C52.6816 7.22942 52.5678 7.188 52.4502 7.188H48.5742Z" fill="#9A1750" stroke="#E3E2DF" stroke-linejoin="round"/>
<path d="M33.3174 29.269C33.2273 29.1934 33.1135 29.152 32.996 29.152H29.652C29.4418 29.152 29.254 29.2835 29.1821 29.481C29.1103 29.6785 29.1696 29.8999 29.3306 30.035L36.991 36.4629C37.0811 36.5385 37.1949 36.5799 37.3124 36.5799H40.6564C40.8666 36.5799 41.0544 36.4484 41.1263 36.2509C41.1982 36.0534 41.1389 35.832 40.9778 35.6969L33.3174 29.269Z" fill="#9A1750" stroke="#E3E2DF" stroke-linejoin="round"/>
<path d="M42.0574 9.35698C41.9085 9.23207 41.7008 9.20472 41.5247 9.28684C41.3486 9.36897 41.236 9.54568 41.236 9.74V17.264C41.236 17.4118 41.3014 17.552 41.4146 17.647L49.0751 24.0749C49.2239 24.1998 49.4317 24.2272 49.6078 24.145C49.7839 24.0629 49.8965 23.8862 49.8965 23.6919V16.1679C49.8965 16.0201 49.8311 15.8799 49.7178 15.7849L42.0574 9.35698Z" fill="#9A1750" stroke="#E3E2DF" stroke-linejoin="round"/>
<path d="M30.5345 25.3371C30.3857 25.5494 30.424 25.8403 30.6226 26.007L38.2831 32.4349C38.3904 32.525 38.5307 32.5659 38.6696 32.5476C38.8086 32.5293 38.9335 32.4536 39.0139 32.3388L45.7779 22.6868C45.9267 22.4745 45.8885 22.1835 45.6898 22.0169L38.0294 15.589C37.922 15.4989 37.7818 15.458 37.6428 15.4763C37.5039 15.4945 37.379 15.5703 37.2985 15.6851L30.5345 25.3371Z" fill="#9A1750" stroke="#E3E2DF" stroke-linejoin="round"/>
<path d="M37.208 15.972C37.208 16.1198 37.2734 16.26 37.3866 16.355L45.0471 22.7829C45.1959 22.9078 45.4037 22.9352 45.5798 22.853C45.7559 22.7709 45.8685 22.5942 45.8685 22.3999V17.0039C45.8685 16.8561 45.8031 16.7159 45.6898 16.6209L38.0294 10.193C37.8805 10.0681 37.6728 10.0407 37.4967 10.1229C37.3206 10.205 37.208 10.3817 37.208 10.576V15.972Z" fill="#9A1750" stroke="#E3E2DF" stroke-linejoin="round"/>
<path d="M5.27339 53.817C5.18334 53.7414 5.06955 53.7 4.952 53.7H1C0.789801 53.7 0.602046 53.8315 0.530154 54.029C0.458261 54.2265 0.517584 54.4479 0.678606 54.583L8.33905 61.0109C8.4291 61.0865 8.54289 61.1279 8.66044 61.1279H12.6124C12.8226 61.1279 13.0104 60.9964 13.0823 60.7989C13.1542 60.6014 13.0949 60.38 12.9338 60.2449L5.27339 53.817Z" fill="#9A1750" stroke="#E3E2DF" stroke-linejoin="round"/>
<path d="M38.2574 0.616978C38.0797 0.467856 37.8227 0.460565 37.6368 0.599369C37.451 0.738174 37.385 0.98661 37.4775 1.19936L41.2775 9.93936C41.3083 10.0104 41.3553 10.0732 41.4146 10.123L49.0751 16.5509C49.2528 16.7 49.5097 16.7073 49.6956 16.5685C49.8815 16.4297 49.9475 16.1813 49.855 15.9685L46.055 7.22851C46.0241 7.1575 45.9772 7.09463 45.9178 7.04485L38.2574 0.616978Z" fill="#9A1750" stroke="#E3E2DF" stroke-linejoin="round"/>
<path d="M37.2501 10.7767C37.281 10.8472 37.3277 10.9096 37.3866 10.959L45.0471 17.3869C45.225 17.5362 45.4823 17.5433 45.6682 17.4041C45.8541 17.2648 45.9196 17.0159 45.8264 16.8031L43.3944 11.2551C43.3635 11.1847 43.3168 11.1223 43.2578 11.0729L35.5974 4.64498C35.4195 4.49568 35.1621 4.48857 34.9762 4.62782C34.7903 4.76707 34.7248 5.01601 34.8181 5.22874L37.2501 10.7767Z" fill="#9A1750" stroke="#E3E2DF" stroke-linejoin="round"/>
<path d="M5.27339 29.269C5.12454 29.1441 4.9168 29.1167 4.74069 29.1989C4.56458 29.281 4.452 29.4577 4.452 29.652V54.2C4.452 54.3478 4.51738 54.488 4.6306 54.583L12.291 61.0109C12.4399 61.1358 12.6476 61.1632 12.8237 61.081C12.9999 60.9989 13.1124 60.8222 13.1124 60.6279V36.0799C13.1124 35.9321 13.0471 35.7919 12.9338 35.6969L5.27339 29.269Z" fill="#9A1750" stroke="#E3E2DF" stroke-linejoin="round"/>
<path d="M25.6414 29.269C25.5513 29.1934 25.4375 29.152 25.32 29.152H4.952C4.7418 29.152 4.55404 29.2835 4.48215 29.481C4.41026 29.6785 4.46958 29.8999 4.6306 30.035L12.291 36.4629C12.3811 36.5385 12.4949 36.5799 12.6124 36.5799H32.9804C33.1906 36.5799 33.3784 36.4484 33.4503 36.2509C33.5222 36.0534 33.4629 35.832 33.3018 35.6969L25.6414 29.269Z" fill="#9A1750" stroke="#E3E2DF" stroke-linejoin="round"/>
<path d="M5.028 25.124C4.8178 25.124 4.63005 25.2555 4.55815 25.453C4.48626 25.6505 4.54558 25.8719 4.70661 26.007L12.3671 32.4349C12.4571 32.5105 12.5709 32.5519 12.6884 32.5519H38.6044C38.8146 32.5519 39.0024 32.4204 39.0743 32.2229C39.1462 32.0254 39.0869 31.804 38.9258 31.6689L31.2654 25.241C31.1753 25.1654 31.0616 25.124 30.944 25.124H5.028Z" fill="#9A1750" stroke="#E3E2DF" stroke-linejoin="round"/>
<path d="M35.5974 4.64498C35.5073 4.56942 35.3936 4.528 35.276 4.528H5.028C4.8178 4.528 4.63005 4.65947 4.55815 4.85699C4.48626 5.05451 4.54558 5.27591 4.70661 5.41102L12.3671 11.8389C12.4571 11.9145 12.5709 11.9559 12.6884 11.9559H42.9364C43.1466 11.9559 43.3344 11.8244 43.4063 11.6269C43.4782 11.4294 43.4189 11.208 43.2578 11.0729L35.5974 4.64498Z" fill="#9A1750" stroke="#E3E2DF" stroke-linejoin="round"/>
<path d="M0.5 54.2C0.5 54.3478 0.565388 54.488 0.678606 54.583L8.33905 61.0109C8.48791 61.1358 8.69564 61.1632 8.87175 61.081C9.04786 60.9989 9.16044 60.8222 9.16044 60.6279V7.42788C9.16044 7.28008 9.09506 7.13986 8.98184 7.04485L1.32139 0.616978C1.17254 0.492074 0.964801 0.464725 0.788691 0.546846C0.612581 0.628967 0.5 0.805684 0.5 1V54.2Z" fill="#9A1750" stroke="#E3E2DF" stroke-linejoin="round"/>
<path d="M1 0.5C0.789801 0.5 0.602046 0.631467 0.530154 0.82899C0.458261 1.02651 0.517584 1.24791 0.678606 1.38302L8.33905 7.8109C8.4291 7.88646 8.54289 7.92788 8.66044 7.92788H45.5964C45.8066 7.92788 45.9944 7.79641 46.0663 7.59889C46.1382 7.40136 46.0789 7.17997 45.9178 7.04485L38.2574 0.616978C38.1673 0.541417 38.0536 0.5 37.936 0.5H1Z" fill="#9A1750" stroke="#E3E2DF" stroke-linejoin="round"/>
<path d="M5.34939 4.64498C5.20054 4.52007 4.9928 4.49272 4.81669 4.57485C4.64058 4.65697 4.528 4.83368 4.528 5.028V25.624C4.528 25.7718 4.59339 25.912 4.70661 26.007L12.3671 32.4349C12.5159 32.5598 12.7236 32.5872 12.8998 32.505C13.0759 32.4229 13.1884 32.2462 13.1884 32.0519V11.4559C13.1884 11.3081 13.1231 11.1679 13.0098 11.0729L5.34939 4.64498Z" fill="#9A1750" stroke="#E3E2DF" stroke-linejoin="round"/>
</svg>
